<?xml version="1.0" encoding="UTF-8" standalone="no"?>
<svg
   width="40.3951mm"
   height="25.7541mm"
   viewBox="0 0 229 146"
   version="1.1"
   id="svg3"
   sodipodi:docname="deco2.svg"
   inkscape:version="1.1.2 (0a00cf5339, 2022-02-04, custom)"
   xmlns:inkscape="http://www.inkscape.org/namespaces/inkscape"
   xmlns:sodipodi="http://sodipodi.sourceforge.net/DTD/sodipodi-0.dtd"
   xmlns="http://www.w3.org/2000/svg"
   xmlns:svg="http://www.w3.org/2000/svg">
  <defs
     id="defs7" />
  <sodipodi:namedview
     id="namedview5"
     pagecolor="#ffffff"
     bordercolor="#666666"
     borderopacity="1.0"
     inkscape:pageshadow="2"
     inkscape:pageopacity="0.0"
     inkscape:pagecheckerboard="0"
     inkscape:document-units="mm"
     showgrid="false"
     inkscape:zoom="2.3645695"
     inkscape:cx="165.3578"
     inkscape:cy="44.828456"
     inkscape:window-width="1600"
     inkscape:window-height="837"
     inkscape:window-x="-8"
     inkscape:window-y="-8"
     inkscape:window-maximized="1"
     inkscape:current-layer="svg3" />
  <path
     style="fill:#552200;stroke-width:0.211455"
     d="m 5.180647,88.388181 v -4.546282 h 4.5462821 4.5462819 v 4.546282 4.546282 H 9.7269291 5.180647 Z"
     id="path157"
     transform="scale(1.4999235)" />
  <path
     style="fill:#552200;stroke-width:0.211455"
     d="m 25.057415,88.388181 v -4.546282 h 4.546282 4.546282 v 4.546282 4.546282 h -4.546282 -4.546282 z"
     id="path196"
     transform="scale(1.4999235)" />
  <path
     style="fill:#552200;stroke-width:0.211455"
     d="m 45.145638,88.388181 v -4.546282 h 4.546282 4.546282 v 4.546282 4.546282 H 49.69192 45.145638 Z"
     id="path235"
     transform="scale(1.4999235)" />
  <path
     style="fill:#552200;stroke-width:0.211455"
     d="m 5.180647,48.317463 v -4.65201 h 4.5462821 4.5462819 v 4.65201 4.652009 H 9.7269291 5.180647 Z"
     id="path274"
     transform="scale(1.4999235)" />
  <path
     style="fill:#552200;stroke-width:0.211455"
     d="m 5.180647,68.299958 v -4.546282 h 4.5462821 4.5462819 v 4.546282 4.546282 H 9.7269291 5.180647 Z"
     id="path313"
     transform="scale(1.4999235)" />
  <path
     style="fill:#803300;stroke-width:0.211455"
     d="m 25.057415,68.299958 v -4.546282 h 4.546282 4.546282 v 4.546282 4.546282 h -4.546282 -4.546282 z"
     id="path352"
     transform="scale(1.4999235)" />
  <path
     style="fill:#803300;stroke-width:0.211455"
     d="m 65.022406,88.388181 v -4.546282 h 4.65201 4.652009 v 4.546282 4.546282 h -4.652009 -4.65201 z"
     id="path428"
     transform="scale(1.4999235)" />
  <path
     style="fill:#803300;stroke-width:0.211455"
     d="m 45.145638,68.299958 v -4.546282 h 4.546282 4.546282 v 4.546282 4.546282 H 49.69192 45.145638 Z"
     id="path467"
     transform="scale(1.4999235)" />
  <path
     style="fill:#803300;stroke-width:0.211455"
     d="m 25.057415,48.317463 v -4.65201 h 4.546282 4.546282 v 4.65201 4.652009 h -4.546282 -4.546282 z"
     id="path506"
     transform="scale(1.4999235)" />
  <path
     style="fill:#aa4400;stroke-width:0.211455"
     d="m 5.180647,28.334967 v -4.546282 h 4.5462821 4.5462819 v 4.546282 4.546282 H 9.7269291 5.180647 Z"
     id="path545"
     transform="scale(1.4999235)" />
  <path
     style="fill:#aa4400;stroke-width:0.211455"
     d="M 5.180647,8.3524717 V 3.7004621 H 9.7269291 14.273211 V 8.3524717 13.004481 H 9.7269291 5.180647 Z"
     id="path621"
     transform="scale(1.4999235)" />
  <path
     style="fill:#aa4400;stroke-width:0.211455"
     d="m 25.057415,28.334967 v -4.546282 h 4.546282 4.546282 v 4.546282 4.546282 h -4.546282 -4.546282 z"
     id="path660"
     transform="scale(1.4999235)" />
  <path
     style="fill:#aa4400;stroke-width:0.211455"
     d="m 45.145638,48.317463 v -4.65201 h 4.546282 4.546282 v 4.65201 4.652009 H 49.69192 45.145638 Z"
     id="path699"
     transform="scale(1.4999235)" />
  <path
     style="fill:#aa4400;stroke-width:0.211455"
     d="m 65.022406,68.299958 v -4.546282 h 4.65201 4.652009 v 4.546282 4.546282 h -4.652009 -4.65201 z"
     id="path738"
     transform="scale(1.4999235)" />
  <path
     style="fill:#d45500;stroke-width:0.211455"
     d="m 85.110629,88.388181 v -4.546282 h 4.546282 4.546282 v 4.546282 4.546282 h -4.546282 -4.546282 z"
     id="path777"
     transform="scale(1.4999235)" />
  <path
     style="fill:#d45500;stroke-width:0.211455"
     d="m 105.19885,88.388181 v -4.546282 h 4.54628 4.54629 v 4.546282 4.546282 h -4.54629 -4.54628 z"
     id="path853"
     transform="scale(1.4999235)" />
  <path
     style="fill:#d45500;stroke-width:0.211455"
     d="m 85.110629,68.299958 v -4.546282 h 4.546282 4.546282 v 4.546282 4.546282 h -4.546282 -4.546282 z"
     id="path892"
     transform="scale(1.4999235)" />
  <path
     style="fill:#d45500;stroke-width:0.211455"
     d="m 65.022406,48.317463 v -4.65201 h 4.65201 4.652009 v 4.65201 4.652009 h -4.652009 -4.65201 z"
     id="path931"
     transform="scale(1.4999235)" />
  <path
     style="fill:#d45500;stroke-width:0.211455"
     d="m 45.145638,28.334967 v -4.546282 h 4.546282 4.546282 v 4.546282 4.546282 H 49.69192 45.145638 Z"
     id="path970"
     transform="scale(1.4999235)" />
  <path
     style="fill:#ff7f2a;stroke-width:0.211455"
     d="M 25.057415,8.3524717 V 3.7004621 h 4.546282 4.546282 v 4.6520096 4.6520093 h -4.546282 -4.546282 z"
     id="path1009"
     transform="scale(1.4999235)" />
  <path
     style="fill:#ff7f2a;stroke-width:0.211455"
     d="M 45.145638,8.3524717 V 3.7004621 h 4.546282 4.546282 V 8.3524717 13.004481 H 49.69192 45.145638 Z"
     id="path1085"
     transform="scale(1.4999235)" />
  <path
     style="fill:#ff7f2a;stroke-width:0.211455"
     d="m 65.022406,28.334967 v -4.546282 h 4.65201 4.652009 v 4.546282 4.546282 h -4.652009 -4.65201 z"
     id="path1124"
     transform="scale(1.4999235)" />
  <path
     style="fill:#ff7f2a;stroke-width:0.211455"
     d="m 85.110629,48.317463 v -4.65201 h 4.546282 4.546282 v 4.65201 4.652009 h -4.546282 -4.546282 z"
     id="path1163"
     transform="scale(1.4999235)" />
  <path
     style="fill:#ff7f2a;stroke-width:0.211455"
     d="m 105.19885,68.299958 v -4.546282 h 4.54628 4.54629 v 4.546282 4.546282 h -4.54629 -4.54628 z"
     id="path1202"
     transform="scale(1.4999235)" />
  <path
     style="fill:#ff7f2a;stroke-width:0.211455"
     d="m 125.07562,88.388181 v -4.546282 h 4.54628 4.54628 v 4.546282 4.546282 h -4.54628 -4.54628 z"
     id="path1241"
     transform="scale(1.4999235)" />
  <path
     style="fill:#ff9955;stroke-width:0.211455"
     d="m 145.16384,88.388181 v -4.546282 h 2.22028 2.22028 v 4.546282 4.546282 h -2.22028 -2.22028 z"
     id="path1428"
     transform="scale(1.4999235)" />
  <path
     style="fill:#ff9955;stroke-width:0.211455"
     d="m 125.07562,68.299958 v -4.546282 h 4.54628 4.54628 v 4.546282 4.546282 h -4.54628 -4.54628 z"
     id="path1504"
     transform="scale(1.4999235)" />
  <path
     style="fill:#ff9955;stroke-width:0.211455"
     d="m 105.19885,48.317463 v -4.65201 h 4.54628 4.54629 v 4.65201 4.652009 h -4.54629 -4.54628 z"
     id="path1543"
     transform="scale(1.4999235)" />
  <path
     style="fill:#ff9955;stroke-width:0.211455"
     d="m 85.110629,28.334967 v -4.546282 h 4.546282 4.546282 v 4.546282 4.546282 h -4.546282 -4.546282 z"
     id="path1582"
     transform="scale(1.4999235)" />
  <path
     style="fill:#ff9955;stroke-width:0.211455"
     d="M 65.022406,8.3524717 V 3.7004621 h 4.65201 4.652009 v 4.6520096 4.6520093 h -4.652009 -4.65201 z"
     id="path1621"
     transform="scale(1.4999235)" />
  <path
     style="fill:#ffb380;stroke-width:0.211455"
     d="M 85.110629,8.3524717 V 3.7004621 h 4.546282 4.546282 v 4.6520096 4.6520093 h -4.546282 -4.546282 z"
     id="path1697"
     transform="scale(1.4999235)" />
  <path
     style="fill:#ffb380;stroke-width:0.211455"
     d="m 105.19885,28.334967 v -4.546282 h 4.54628 4.54629 v 4.546282 4.546282 h -4.54629 -4.54628 z"
     id="path1921"
     transform="scale(1.4999235)" />
  <path
     style="fill:#ffb380;stroke-width:0.211455"
     d="m 125.07562,48.317463 v -4.65201 h 4.54628 4.54628 v 4.65201 4.652009 h -4.54628 -4.54628 z"
     id="path1960"
     transform="scale(1.4999235)" />
  <path
     style="fill:#ffb380;stroke-width:0.211455"
     d="m 145.16384,68.299958 v -4.546282 h 2.22028 2.22028 v 4.546282 4.546282 h -2.22028 -2.22028 z"
     id="path1999"
     transform="scale(1.4999235)" />
  <path
     style="fill:#ffccaa;stroke-width:0.211455"
     d="m 145.16384,48.317463 v -4.65201 h 2.22028 2.22028 v 4.65201 4.652009 h -2.22028 -2.22028 z"
     id="path2038"
     transform="scale(1.4999235)" />
  <path
     style="fill:#ffccaa;stroke-width:0.211455"
     d="m 125.07562,28.334967 v -4.546282 h 4.54628 4.54628 v 4.546282 4.546282 h -4.54628 -4.54628 z"
     id="path2114"
     transform="scale(1.4999235)" />
  <path
     style="fill:#ffccaa;stroke-width:0.211455"
     d="M 105.19885,8.3524717 V 3.7004621 h 4.54628 4.54629 v 4.6520096 4.6520093 h -4.54629 -4.54628 z"
     id="path2231"
     transform="scale(1.4999235)" />
  <path
     style="fill:#ffccaa;stroke-width:0.211455"
     d="M 125.07562,8.3524717 V 3.7004621 h 4.54628 4.54628 v 4.6520096 4.6520093 h -4.54628 -4.54628 z"
     id="path2270"
     transform="scale(1.4999235)" />
  <path
     style="fill:#ffccaa;stroke-width:0.211455"
     d="M 145.16384,8.3524717 V 3.7004621 h 2.22028 2.22028 v 4.6520096 4.6520093 h -2.22028 -2.22028 z"
     id="path2309"
     transform="scale(1.4999235)" />
  <path
     style="fill:#ffccaa;stroke-width:0.211455"
     d="m 145.16384,28.334967 v -4.546282 h 2.22028 2.22028 v 4.546282 4.546282 h -2.22028 -2.22028 z"
     id="path2348"
     transform="scale(1.4999235)" />
</svg>
