<?xml version="1.0" encoding="UTF-8" standalone="no"?>
<svg
   width="3.56944in"
   height="3.55556in"
   viewBox="0 0 257 256"
   version="1.1"
   id="svg3"
   sodipodi:docname="facebook blanc.svg"
   inkscape:version="1.1.2 (0a00cf5339, 2022-02-04, custom)"
   xmlns:inkscape="http://www.inkscape.org/namespaces/inkscape"
   xmlns:sodipodi="http://sodipodi.sourceforge.net/DTD/sodipodi-0.dtd"
   xmlns="http://www.w3.org/2000/svg"
   xmlns:svg="http://www.w3.org/2000/svg">
  <defs
     id="defs7" />
  <sodipodi:namedview
     id="namedview5"
     pagecolor="#ffffff"
     bordercolor="#666666"
     borderopacity="1.0"
     inkscape:pageshadow="2"
     inkscape:pageopacity="0.0"
     inkscape:pagecheckerboard="0"
     inkscape:document-units="in"
     showgrid="false"
     inkscape:zoom="1.9072241"
     inkscape:cx="171.19121"
     inkscape:cy="170.40472"
     inkscape:window-width="1600"
     inkscape:window-height="837"
     inkscape:window-x="-8"
     inkscape:window-y="-8"
     inkscape:window-maximized="1"
     inkscape:current-layer="svg3" />
  <path
     id="Sélection"
     fill="none"
     stroke="black"
     stroke-width="1"
     d="M 109.00,256.00            C 92.14,253.73 74.37,247.44 60.00,238.31              44.05,228.17 31.85,216.66 21.19,201.00              9.35,183.59 0.03,158.21 0.00,137.00              0.00,137.00 0.00,118.00 0.00,118.00              0.33,89.95 17.54,56.54 37.04,37.04              61.59,12.49 96.56,-0.40 131.00,0.00              144.92,0.17 162.02,3.78 175.00,8.81              190.39,14.78 204.93,23.83 217.00,35.09              258.01,73.34 268.07,137.25 243.19,187.00              235.60,202.17 224.78,215.60 212.00,226.71              193.12,243.13 172.27,251.43 148.00,256.00              148.00,256.00 148.00,166.00 148.00,166.00              148.00,166.00 178.00,166.00 178.00,166.00              178.00,166.00 183.00,129.00 183.00,129.00              183.00,129.00 148.00,129.00 148.00,129.00              148.00,129.00 148.00,112.00 148.00,112.00              148.00,97.99 149.05,85.24 167.00,85.00              167.00,85.00 185.00,85.00 185.00,85.00              185.00,85.00 185.00,53.00 185.00,53.00              185.00,53.00 156.00,51.00 156.00,51.00              150.07,51.03 144.65,51.83 139.00,53.67              134.33,55.19 130.96,56.48 127.00,59.53              104.33,76.97 108.00,103.70 108.00,129.00              108.00,129.00 76.00,129.00 76.00,129.00              76.00,129.00 76.00,166.00 76.00,166.00              76.00,166.00 108.00,166.00 108.00,166.00              108.00,166.00 108.00,225.00 108.00,225.00              108.00,225.00 109.00,256.00 109.00,256.00 Z" />
  <path
     style="fill:#ffffff;stroke-width:0.524322"
     d="M 134.22649,338.42309 C 94.159107,329.88527 58.540855,307.00615 33.63374,273.80808 20.567517,256.39244 10.262838,234.18113 4.7217271,211.48942 1.5338927,198.43474 1.3108056,195.73051 1.3108056,170.14256 c 0,-23.20699 0.00763,-23.37181 1.4198103,-30.6801 C 9.4473559,104.70218 30.102298,67.76006 55.592177,44.917633 67.512842,34.235083 78.391374,26.93107 93.591518,19.404304 115.62793,8.4923711 137.19431,2.8551376 163.11788,1.2308201 c 34.75549,-2.17770793 73.36278,8.7273326 104.28646,29.4568169 12.73985,8.540075 27.83042,22.323852 36.72182,33.541836 33.22365,41.917147 45.06271,98.188677 31.71499,150.742637 -5.9957,23.60687 -16.29004,44.31468 -31.53903,63.44299 -5.79756,7.27247 -19.72915,21.2339 -26.93566,26.99338 -16.57365,13.24573 -37.36886,23.84467 -58.49277,29.81271 -6.99946,1.97751 -18.81438,4.80178 -20.08762,4.80178 -0.43663,0 -0.59227,-15.5001 -0.59227,-58.98626 v -58.98625 h 19.91426 19.91426 l 0.26764,-1.17972 c 0.3477,-1.53255 6.56852,-47.82137 6.56852,-48.876 0,-0.70982 -2.72821,-0.80353 -23.39275,-0.80353 h -23.39275 l 0.26893,-17.69588 c 0.29579,-19.46314 0.66803,-22.4411 3.5348,-28.27922 1.95858,-3.98862 5.8108,-7.58332 9.67654,-9.02968 4.28062,-1.60158 10.30165,-2.14635 23.7226,-2.14635 h 12.20424 V 92.028539 70.016994 l -1.17972,-0.243091 c -2.6168,-0.539224 -35.63662,-2.539822 -40.81936,-2.473165 -9.791,0.125937 -20.97617,2.749294 -29.5932,6.940768 -7.76916,3.779052 -16.07711,11.474571 -21.59294,20.001168 -9.04645,13.984386 -12.24775,31.828336 -11.38276,63.447236 l 0.36936,13.5013 h -21.3058 -21.3058 v 25.42963 25.42962 h 21.17601 21.17602 l 0.33075,51.2525 c 0.18191,28.18888 0.46654,54.73269 0.63252,58.98625 l 0.30177,7.73376 -1.49105,-0.0458 c -0.82008,-0.0252 -4.67631,-0.72452 -8.5694,-1.55409 z"
     id="path83"
     transform="matrix(0.75000096,0,0,0.75000096,0,-3.2742613e-4)" />
  <path
     style="fill:#ffffff;stroke-width:0.524322"
     d="M 135.27513,338.67065 C 120.58779,335.6025 108.52863,331.41809 94.596581,324.5556 70.53934,312.70576 49.971758,295.58462 33.63374,273.80808 18.238258,253.28783 6.632694,225.8816 2.2798688,199.76677 1.1648007,193.0769 0.63527888,155.37483 1.5471456,147.59671 4.9978689,118.16242 20.076966,85.13787 42.028506,58.938983 67.866801,28.101298 108.16016,7.3618894 152.57777,2.0381318 c 10.31294,-1.23607782 28.78127,-1.24142365 37.7512,-0.010927 40.39442,5.5413126 74.24737,21.8253232 101.5173,48.8320512 19.0221,18.838499 32.23029,40.416593 40.75982,66.588924 16.53085,50.72389 8.94344,107.19888 -20.1466,149.95616 -10.47754,15.40015 -25.67781,31.21191 -40.537,42.16773 -13.96197,10.2943 -31.36723,19.02205 -48.56122,24.35072 -6.17931,1.91505 -18.95829,5.15788 -22.9391,5.8211 l -2.22837,0.37125 V 281.0828 222.05046 h 19.91426 19.91426 l 0.26436,-1.17972 c 0.33041,-1.47444 6.5718,-47.97066 6.5718,-48.95765 0,-0.60217 -3.87909,-0.72188 -23.39275,-0.72188 h -23.39275 l 0.26893,-17.69588 c 0.29579,-19.46314 0.66803,-22.4411 3.5348,-28.27922 1.95858,-3.98862 5.8108,-7.58332 9.67654,-9.02968 4.28062,-1.60158 10.30165,-2.14635 23.7226,-2.14635 h 12.20424 V 92.028539 70.016994 l -1.17972,-0.243909 c -0.64885,-0.134153 -8.96591,-0.757625 -18.48236,-1.385496 -21.02192,-1.386973 -29.40843,-1.213376 -37.35481,0.773245 -6.50325,1.625829 -14.08883,4.497321 -17.67555,6.691001 -4.38,2.678862 -10.96665,8.522093 -14.35706,12.736621 -12.44018,15.464034 -16.45194,33.263454 -15.51551,68.839294 l 0.36228,13.76346 h -21.30375 -21.30374 v 25.42963 25.42962 h 21.17155 21.17155 l 0.33039,50.99034 c 0.18171,28.04469 0.47195,54.5885 0.64497,58.98625 l 0.31458,7.99592 -1.49904,-0.0463 c -0.82446,-0.0255 -4.2124,-0.61319 -7.52874,-1.30597 z"
     id="path122"
     transform="matrix(0.75000096,0,0,0.75000096,0,-3.2742613e-4)" />
</svg>
