<?xml version="1.0" encoding="UTF-8" standalone="no"?>
<svg
   width="3.58333in"
   height="3.56944in"
   viewBox="0 0 258 257"
   version="1.1"
   id="svg3"
   sodipodi:docname="instagram blanc.svg"
   inkscape:version="1.1.2 (0a00cf5339, 2022-02-04, custom)"
   xmlns:inkscape="http://www.inkscape.org/namespaces/inkscape"
   xmlns:sodipodi="http://sodipodi.sourceforge.net/DTD/sodipodi-0.dtd"
   xmlns="http://www.w3.org/2000/svg"
   xmlns:svg="http://www.w3.org/2000/svg">
  <defs
     id="defs7" />
  <sodipodi:namedview
     id="namedview5"
     pagecolor="#ffffff"
     bordercolor="#666666"
     borderopacity="1.0"
     inkscape:pageshadow="2"
     inkscape:pageopacity="0.0"
     inkscape:pagecheckerboard="0"
     inkscape:document-units="in"
     showgrid="false"
     inkscape:zoom="1.8998079"
     inkscape:cx="171.85948"
     inkscape:cy="171.5963"
     inkscape:window-width="1600"
     inkscape:window-height="837"
     inkscape:window-x="-8"
     inkscape:window-y="-8"
     inkscape:window-maximized="1"
     inkscape:current-layer="svg3" />
  <path
     id="Sélection #1"
     fill="none"
     stroke="black"
     stroke-width="1"
     d="M 124.00,0.42            C 134.20,-0.82 154.89,2.38 165.00,5.29              236.01,25.70 273.77,100.52 251.26,170.00              238.19,210.32 204.75,241.70 164.00,252.85              145.99,257.78 137.24,257.21 119.00,257.00              108.75,256.88 95.72,253.60 86.00,250.33              46.58,237.07 15.46,203.11 4.88,163.00              0.02,144.57 0.79,136.47 1.00,118.00              1.15,105.57 7.11,85.35 12.31,74.00              26.72,42.55 55.10,17.40 88.00,6.74              96.41,4.02 105.19,2.01 114.00,1.17              114.00,1.17 124.00,0.42 124.00,0.42 Z            M 93.00,54.14            C 87.47,55.21 83.03,56.39 78.00,58.98              62.47,66.97 54.20,82.90 54.00,100.00              54.00,100.00 54.00,112.00 54.00,112.00              54.00,112.00 54.00,137.00 54.00,137.00              54.00,156.48 51.70,172.93 65.46,188.96              78.73,204.42 96.56,204.00 115.00,204.00              115.00,204.00 154.00,204.00 154.00,204.00              159.35,203.99 166.89,203.30 172.00,201.79              176.23,200.54 180.34,198.70 184.00,196.25              202.92,183.59 204.00,167.47 204.00,147.00              204.00,147.00 204.00,123.00 204.00,123.00              204.00,105.10 206.37,87.42 195.22,72.00              179.12,49.74 153.90,54.00 130.00,54.14              130.00,54.14 93.00,54.14 93.00,54.14 Z            M 92.00,68.19            C 92.00,68.19 123.00,68.19 123.00,68.19              123.00,68.19 148.00,68.19 148.00,68.19              148.00,68.19 165.00,68.19 165.00,68.19              175.72,69.88 184.70,77.92 188.30,88.00              190.05,92.91 189.99,94.93 190.00,100.00              190.00,100.00 190.00,157.00 190.00,157.00              189.97,178.05 176.68,189.97 156.00,190.00              156.00,190.00 112.00,190.00 112.00,190.00              97.45,190.00 85.90,191.27 75.21,178.99              66.08,168.49 68.00,155.82 68.00,143.00              68.00,143.00 68.00,113.00 68.00,113.00              68.00,113.00 68.00,98.00 68.00,98.00              68.18,83.20 77.68,71.87 92.00,68.19 Z            M 166.04,81.51            C 154.95,86.66 162.02,99.95 170.98,97.34              178.23,95.23 178.05,86.91 174.57,83.43              172.03,80.89 169.28,81.01 166.04,81.51 Z            M 125.00,92.29            C 111.15,94.59 100.76,101.56 95.46,115.00              86.57,137.55 101.78,164.69 127.00,165.00              135.94,165.10 139.88,165.15 148.00,160.69              165.49,151.08 172.00,125.91 160.89,109.00              152.77,96.64 139.47,90.92 125.00,92.29 Z            M 124.00,105.53            C 130.30,104.50 136.38,104.88 142.00,108.22              161.05,119.55 155.35,147.87 134.00,152.33              116.60,155.97 101.91,138.96 106.79,122.00              109.32,113.19 115.45,108.08 124.00,105.53 Z" />
  <path
     style="fill:#ffffff;stroke-width:0.526369"
     d="m 166.49956,202.15853 c -9.24642,-2.10768 -16.58225,-7.95214 -21.02239,-16.74857 -5.85928,-11.60789 -3.75998,-25.97585 5.13443,-35.14093 9.84656,-10.14621 26.35466,-12.21667 38.58356,-4.83919 6.5258,3.9369 11.79787,10.97592 13.70515,18.29845 1.02752,3.94493 1.03075,10.70453 0.007,14.73181 -1.93672,7.619 -7.11919,14.94514 -13.5629,19.17302 -6.37584,4.18336 -15.99021,6.0879 -22.84489,4.52541 z"
     id="path120"
     transform="scale(0.75000084)" />
  <path
     style="fill:#ffffff;stroke-width:0.526369"
     d="m 127.1034,251.85685 c -5.02407,-0.67493 -9.61447,-2.02543 -13.36212,-3.93112 -8.65549,-4.40136 -16.034698,-12.43827 -19.236908,-20.95148 -2.917606,-7.75658 -2.970818,-8.86846 -2.780147,-58.09209 0.194522,-50.21779 -0.01658,-47.17721 3.835442,-55.24399 4.537013,-9.50128 13.289373,-17.10351 23.796603,-20.669543 3.26172,-1.10699 3.73883,-1.117234 52.03456,-1.117234 54.01876,0 51.5872,-0.144015 58.82469,3.484041 10.11628,5.071166 17.04381,13.423366 20.90406,25.203066 l 1.20745,3.68459 0.20955,40.67049 c 0.22193,43.07171 -0.0711,51.61114 -2.00934,58.55007 -3.92243,14.04253 -13.43096,23.18861 -28.36276,27.28161 l -5.03726,1.38078 -43.42544,0.0885 c -23.884,0.0487 -44.85327,-0.10328 -46.59838,-0.33772 z m 58.06909,-31.87405 c 4.35215,-0.88928 12.12745,-4.29536 16.25746,-7.12181 18.29218,-12.5186 26.17472,-38.8329 17.99133,-60.06057 -4.32812,-11.22714 -14.77726,-21.8913 -26.2218,-26.76139 -6.72888,-2.8634 -12.04427,-3.87061 -20.55044,-3.8941 -6.74249,-0.0186 -8.23276,0.14641 -12.78208,1.41552 -16.84136,4.69818 -28.23775,14.97291 -33.75576,30.43342 -2.46202,6.89813 -3.13357,11.70383 -2.80661,20.08449 0.32603,8.35697 1.76324,13.85899 5.52041,21.13356 6.84715,13.25736 19.33937,22.7571 32.89533,25.01537 4.8925,0.81503 18.98587,0.66811 23.45216,-0.24449 z m 45.32191,-90.21289 c 2.64297,-1.3598 4.60953,-3.57981 5.56165,-6.27842 1.01948,-2.8895 1.02282,-4.96359 0.0133,-8.25273 -0.92083,-3.00016 -1.95017,-4.35984 -4.7273,-6.24446 -1.73885,-1.18002 -2.54131,-1.35184 -6.31374,-1.35184 -3.94417,0 -4.50781,0.13481 -6.45192,1.54312 -4.44827,3.22231 -6.36696,7.5507 -5.35291,12.07563 0.641,2.86027 1.28038,4.12678 3.04694,6.03549 3.61527,3.9062 9.46266,4.92292 14.22401,2.47321 z"
     id="path159"
     transform="scale(0.75000084)" />
  <path
     style="fill:#ffffff;stroke-width:0.526369"
     d="m 150.01517,341.12084 c -15.13654,-1.91596 -33.79862,-7.10165 -47.79877,-13.282 C 74.690295,315.68746 51.042911,296.34459 33.172253,271.36273 17.643794,249.65509 7.6618953,224.97967 3.3120728,197.54788 2.5244612,192.58086 2.3686606,188.2516 2.3686606,171.33311 c 0,-22.5539 0.3049752,-25.487 4.2689664,-41.05678 6.545532,-25.70957 16.464673,-45.948634 32.2466,-65.796126 5.146996,-6.472907 18.942052,-20.25682 25.332793,-25.312331 24.134082,-19.0917 49.34981,-30.447157 78.69217,-35.437628 6.83658,-1.1627475 22.88956,-2.4144258 30.95591,-2.4136841 16.88064,0.00155 40.98495,4.4077288 57.6083,10.5305771 14.01889,5.163553 32.45679,15.149434 43.52689,23.573949 38.9241,29.621864 63.01232,73.806703 67.17897,123.225903 0.77063,9.1402 0.36236,26.61181 -0.82536,35.31999 -4.54467,33.32097 -16.94194,62.07639 -37.52687,87.04348 -5.50613,6.67829 -17.15276,18.13438 -24.0619,23.66826 -23.63697,18.93203 -51.85337,31.30815 -81.95379,35.9461 -7.49358,1.15462 -39.93335,1.49129 -47.79617,0.49602 z m 65.34558,-68.73778 c 17.93249,-1.77407 30.17911,-7.44778 41.56481,-19.25647 7.86355,-8.15569 12.1196,-17.00225 14.40697,-29.94613 0.50456,-2.85524 1.05402,-10.88895 1.38303,-20.22138 0.70863,-20.10007 0.33908,-73.61256 -0.54534,-78.96985 -2.91838,-17.67763 -10.64052,-31.430618 -22.78708,-40.583317 -7.56265,-5.698634 -15.68628,-9.094225 -26.72905,-11.172461 -5.96257,-1.122145 -6.75498,-1.136931 -52.90008,-0.987084 l -46.84684,0.15212 -5.1004,1.236731 c -11.32005,2.744846 -20.22805,7.589941 -28.07188,15.268407 -7.586373,7.42644 -12.813775,16.133404 -15.732138,26.204074 -2.713175,9.3626 -2.67975,8.64552 -2.67975,57.4886 0,49.6761 -0.05581,48.57129 2.978227,58.95333 4.344508,14.86625 15.833506,28.67839 29.385341,35.32721 6.75333,3.31332 16.13487,5.64901 25.92555,6.45458 7.94183,0.65344 79.23154,0.69638 85.74863,0.0516 z"
     id="path198"
     transform="scale(0.75000084)" />
</svg>
