<?xml version="1.0" encoding="UTF-8" standalone="no"?>
<svg
   width="2.1233301in"
   height="1.1073487in"
   viewBox="0 0 636.99997 332.20372"
   version="1.1"
   id="svg3"
   sodipodi:docname="logo.svg"
   inkscape:version="1.1.2 (0a00cf5339, 2022-02-04, custom)"
   xmlns:inkscape="http://www.inkscape.org/namespaces/inkscape"
   xmlns:sodipodi="http://sodipodi.sourceforge.net/DTD/sodipodi-0.dtd"
   xmlns="http://www.w3.org/2000/svg"
   xmlns:svg="http://www.w3.org/2000/svg">
  <defs
     id="defs7" />
  <sodipodi:namedview
     id="namedview5"
     pagecolor="#ffffff"
     bordercolor="#666666"
     borderopacity="1.0"
     inkscape:pageshadow="2"
     inkscape:pageopacity="0.0"
     inkscape:pagecheckerboard="0"
     inkscape:document-units="in"
     showgrid="false"
     inkscape:zoom="2.56"
     inkscape:cx="103.71094"
     inkscape:cy="31.25"
     inkscape:window-width="1600"
     inkscape:window-height="837"
     inkscape:window-x="-8"
     inkscape:window-y="-8"
     inkscape:window-maximized="1"
     inkscape:current-layer="svg3" />
  <g
     id="g617"
     transform="matrix(0.99995202,0,0,0.99995202,0.01528049,0.00796897)">
    <path
       id="Sélection"
       fill="none"
       stroke="#000000"
       stroke-width="1"
       d="m 304.5,0.70320525 c 8.49,0 27.05,-1.25 34,2.44000005 10.26,5.45 9.14,16.8799997 8.17,26.5599997 -0.35,3.42 0.02,5.72 -1.62,9 -1.55,3.09 -4.17,5.55 -6.55,8 9.67,8.21 7.02,14.29 7,25 0,0 1,21 1,21 0,0 -13,-1 -13,-1 0,0 0,-27 0,-27 -0.06,-3.88 -0.3,-7.68 -3.39,-10.49 -3.11,-2.82 -7.7,-2.5 -11.61,-2.51 0,0 0,40 0,40 0,0 -12,0 -12,0 0,0 0,-16 0,-16 0,0 -1,-16 -1,-16 0,0 0,-44 0,-44 0,0 -1,-14.99999975 -1,-14.99999975 z m -49,2.00000005 c 0,0 16,-1 16,-1 0,0 18,0 18,0 0,0 0,10.9999997 0,10.9999997 -3.5,0 -15.26,-0.62 -17.68,1.02 -2.79,1.89 -1.73,5.21 -1.49,7.98 0,0 1.17,19 1.17,19 0,0 17,-1 17,-1 0,2.36 0.42,8.51 -0.99,10.26 -2.07,2.56 -12.62,1.74 -16.01,1.74 0,0 1,17 1,17 0,0 1,14 1,14 0,0 18,-1 18,-1 0,0 1,11 1,11 0,0 -31,1 -31,1 0,0 -0.91,-13 -0.91,-13 0,0 -2,-30 -2,-30 0,0 -1.26,-23 -1.26,-23 0,0 -1.83,-24.9999997 -1.83,-24.9999997 z m 146,63.9999997 c -0.04,4.8 -1.71,10.9 0.85,14.96 5.26,8.33 14,3.49 14.95,-5.96 0.74,-7.31 -3.9,-12.71 -8.22,-18 -7.37,-9.01 -15.78,-16.77 -16.49,-29 -0.37,-6.32 1.39,-15.16 6.12,-19.6599997 8.05,-7.67 25.83,-6.34 33,1.9899997 6.22,7.21 3.18,17.16 2.79,25.67 -3.06,-0.55 -11.11,-0.66 -12.41,-3.43 -1.22,-2.6 3.37,-15.55 -6.59,-17.34 -5.31,-0.95 -8.91,5.29 -9.44,9.77 -0.72,5.98 2.77,10.59 6.24,15 4.67,5.93 13,15.42 15.84,22 5.18,12 1.29,30.24 -12.64,34.07 -9.33,2.57 -21.55,-0.65 -25.64,-10.07 -1.73,-4.01 -1.42,-8.7 -1.36,-13 0.03,-2.14 -0.1,-5.53 1.74,-7 2.11,-1.7 8.51,-0.22 11.26,0 z M 195.5,8.7032053 c 9.71,-1.28 16.09,-2.13 26,-2 13.79,0.19 15.87,8.4999997 17.24,19.9999997 0.6,4.54 1.34,8.44 0,13 -1.11,3.56 -3.03,6.1 -5.24,9 3.11,2.24 5.98,4.61 7.91,8 2.26,3.96 1.84,6.8 2.26,11 0.86,8.6 2.66,19.21 -5.27,25.35 -6.12,4.75 -23.52,5.15 -31.9,6.65 0,0 -1.85,-16 -1.85,-16 0,0 -9.15,-74.9999997 -9.15,-74.9999997 z m 259,1 c 0,0 14,1.9999997 14,1.9999997 0,0 -6,38 -6,38 0,0 17,2 17,2 0,0 6,-37 6,-37 0,0 13,2 13,2 0,0 -5.39,33 -5.39,33 0,0 -10.61,57.000005 -10.61,57.000005 -2.68,-0.12 -9.29,-0.48 -10.78,-2.73 -1.69,-1.96 -0.23,-7.880005 0,-10.270005 0,0 5.78,-30 5.78,-30 0,0 -16,-3 -16,-3 0,0 -4.92,29 -4.92,29 0,0 -2.82,11.000005 -2.82,11.000005 0,0 -11.26,0 -11.26,0 0,0 12,-91.0000047 12,-91.0000047 z m -136,31.9999997 c 4.03,0 9.5,0.64 12.57,-2.43 3.91,-3.91 3.73,-22.41 -0.8,-25.83 -2.94,-2.23 -8.19,-1.74 -11.77,-1.74 0,0 0,30 0,30 z m -167,67.000005 c 0,0 -13,-66.000005 -13,-66.000005 0,0 -3,-16 -3,-16 -0.38,-2.01 -1.35,-5.49 0,-7.26 1.53,-2 13.05,-3.51 16,-3.99 5.86,-0.95 14.73,-1.72 19.96,1.48 2.43,1.49 4.02,3.29 5.37,5.78 2.38,4.43 5.33,20.23 4.03,24.99 -0.97,3.57 -3.23,7.02 -5.36,10 0,0 8.55,9 8.55,9 0,0 2.87,14 2.87,14 0,0 4.58,21.160005 4.58,21.160005 -3.1,0.25 -10.02,2.14 -12.49,0 -2.12,-1.55 -2.49,-5.630005 -2.92,-8.160005 -1.28,-7.52 -1.85,-25.67 -10.59,-27.67 -2.33,-0.53 -6.51,0.34 -9,0.67 0,0 7,40.000005 7,40.000005 0,0 -12,2 -12,2 z m 61,-63.000005 c 3.85,-0.01 8.51,0.27 11.49,-2.65 3.94,-3.86 2.31,-19.49 -1,-22.98 -2.36,-2.39 -11.21,-4.04 -12.8,0 -0.57,1.35 0.47,9.66 0.73,11.63 0,0 1.58,14 1.58,14 z m 314,-21.59 c 3.62,-0.48 7.35,-0.64 11,0 2.37,0.23 5.82,1.14 8,2.12 14.75,6.57 11.51,19.06 8.37,31.47 0,0 -4,16 -4,16 0,0 -3,12 -3,12 -2.95,11.81 -4.2,27.110005 -18.37,30.320005 -8.8,1.99 -21.43,-2.52 -24.99,-11.32 -1.11,-2.74 -1.06,-6.070005 -1,-9.000005 0,0 9.57,-49 9.57,-49 2.26,-10.3 2.7,-18.71 14.42,-22.59 z m -430,96.590005 c 0,0 -2.17,-20 -2.17,-20 0,0 -2.74,-28.000005 -2.74,-28.000005 0,0 -1.37,-19 -1.37,-19 0,0 -1.44,-17 -1.44,-17 -0.23,-2.01 -0.62,-5.58 0.71,-7.27 1.65,-2.08 13.95,-4.3 17.01,-4.73 0,0 7.4,19 7.4,19 0,0 17.02,43 17.02,43 0,0 8.58,24.000005 8.58,24.000005 0,0 -12,3 -12,3 0,0 -5.66,-15.000005 -5.66,-15.000005 0,0 -3.61,-5.68 -3.61,-5.68 0,0 -12.73,1.68 -12.73,1.68 0,0 3,24.000005 3,24.000005 0,0 -12,2 -12,2 z m 58,-64.000005 c 3.84,-0.7 9.63,-1.13 12.15,-4.39 3.47,-4.51 0.32,-21.63 -4.28,-24.87 -3.6,-2.54 -8.67,-0.93 -12.87,-0.74 0,0 5,30 5,30 z m 379,-21.48 c -7.31,2.7 -7.13,8.78 -8.65,15.48 0,0 -9.82,45 -9.82,45 -0.4,5.710005 3.5,10.110005 9.45,8.680005 6.06,-1.46 7.12,-10.530005 8.23,-15.680005 0,0 10.45,-44 10.45,-44 0.51,-6.31 -3.74,-9.57 -9.66,-9.48 z m 45,0.48 c 9.87,1.39 31.14,6.67 35.83,16 1.4,2.8 1.23,6.9 1.16,10 -0.16,6.19 -5.53,22.92 -9.1,27.91 -1.63,2.28 -3.37,3.81 -5.9,5.04 -7.55,3.68 -16.68,1.16 -23.99,-1.95 0,0 -6.71,24.000005 -6.71,24.000005 -0.66,2.31 -1.74,7.64 -3.8,8.89 -2.49,1.51 -8.84,-1.02 -11.49,-1.89 0,0 5.12,-19 5.12,-19 0,0 12.3,-45.000005 12.3,-45.000005 0,0 6.58,-24 6.58,-24 z m -530,99.000005 c 0,0 -5.66,-18 -5.66,-18 0,0 -14.76,-46.000005 -14.76,-46.000005 0,0 -5.39,-16 -5.39,-16 -0.41,-1.86 -1.37,-4.51 0,-6.3 1.33,-2.2 10.89,-4.45 13.81,-5.36 5.75,-1.79 14.19,-3.69 20,-1.33 8.01,3.24 9.87,10.55 12,17.99 0.84,2.94 1.83,5.9 1.61,9 -0.26,3.66 -2.25,8.56 -3.61,12 11.44,3.8 12.21,10.82 14.99,21.000005 1.89,6.92 3.33,13.75 -1.42,19.98 -1.72,2.27 -4.07,4.24 -6.57,5.61 -3.86,2.1 -20.51,7.01 -25,7.41 z m 53,-92.000005 c 0,0 0.72,15 0.72,15 0,0 2.28,26 2.28,26 0,0 11,-2 11,-2 0,0 -14,-39 -14,-39 z m 478,39 c 3.7,1.62 9.02,4.02 12.96,1.97 4.42,-2.29 5.31,-7.66 6.71,-11.97 2.61,-8.03 6.53,-16.67 -4.67,-20.06 -1.97,-0.59 -3.96,-0.77 -6,-0.94 0,0 -9,31 -9,31 z m -534,0 c 3.78,-1.26 8.76,-2.37 10.82,-6.11 2.63,-4.74 -1.8,-20.22 -6.92,-22.29 -3.51,-1.42 -8.5,0.3 -11.9,1.4 0,0 8,27 8,27 z m 172,5 c 3.8,-0.01 8.7,0.28 11.69,-2.51 4.02,-3.76 2.56,-22.38 -1.12,-26.18 -3.05,-3.14 -9.44,-2.31 -13.57,-2.31 0,0 3,31 3,31 z m -160,34.000005 c 3.97,-0.8 8.76,-1.58 11.26,-5.13 1.06,-1.5 1.47,-3.05 1.45,-4.87 -0.04,-4.35 -4.3,-18.570005 -8.04,-20.820005 -3.69,-2.24 -9.59,0.19 -13.67,0.82 0,0 9,30.000005 9,30.000005 z m 258,-2.89 c 0,0 5,0 5,0 1.91,-0.1 4.13,-0.12 6,0 12.74,2.54 6.34,15.93 7.54,22.89 1,5.79 3.66,15.5 -1.19,20.35 -3.61,3.61 -12.44,2.65 -17.35,2.65 0,0 0,-45.89 0,-45.89 z m -69,3.89 c 6.33,2.99 13.83,11.83 19,17 0,0 36,36 36,36 0,0 14,13.99 14,13.99 1.48,1.42 3.8,3.97 6,3.97 2.2,0 4.52,-2.55 6,-3.97 0,0 14,-13.99 14,-13.99 0,0 36,-36 36,-36 5.17,-5.17 12.67,-14.01 19,-17 0,0 -26,27 -26,27 0,0 -48,48 -48,48 0,0 38,37 38,37 0,0 36,37 36,37 0,0 -1,1 -1,1 0,0 -27,-26 -27,-26 0,0 -48,-48 -48,-48 -4.27,5.97 -12.56,13.56 -18,19 0,0 -31,31 -31,31 -5.85,5.85 -18.37,19.86 -25,23 4.3,-6.01 13.45,-14.45 19,-20 0,0 34,-34 34,-34 0,0 13.99,-14 13.99,-14 1.42,-1.48 3.97,-3.8 3.97,-6 0,-2.2 -2.55,-4.52 -3.97,-6 0,0 -13.99,-14 -13.99,-14 0,0 -36,-36 -36,-36 -5.17,-5.17 -14.01,-12.67 -17,-19 z m 75.05,2 c 0,0 0,7 0,7 0,0 0,2.94 0,2.94 0.59,2.9 2.85,4.85 5.36,2.44 2.44,-2.34 2.16,-9.44 -0.72,-11.36 -1.41,-0.93 -3.09,-0.89 -4.64,-1.02 z m 0,19 c 0,0 0,9 0,9 0,0 0,2.94 0,2.94 0.78,4.02 3.9,4.3 6.21,1.63 2.36,-2.74 2.5,-10.35 -0.69,-12.55 -1.59,-1.09 -3.74,-0.96 -5.52,-1.02 z m 59.95,16 c 3.08,0 8.04,-0.59 9.98,2.31 1.57,2.36 1.02,12.42 1.02,15.69 0,0 0,41 0,41 -0.01,4.66 0.8,8.5 -5.02,8.94 -2.39,0.18 -3.8,-0.08 -5.98,-0.94 0,0 7,-1 7,-1 0,0 -7,-1 -7,-1 0,0 7,-1 7,-1 0,0 -7,-1 -7,-1 0,0 7,-1 7,-1 0,0 -7,-1 -7,-1 0,0 7,-1 7,-1 0,0 -7,-1 -7,-1 0,0 7,-1 7,-1 0,0 -7,-1 -7,-1 0,0 7,-1 7,-1 0,0 -7,-1 -7,-1 0,0 7,-1 7,-1 0,0 -7,-1 -7,-1 0,0 7,-1 7,-1 0,0 -7,-1 -7,-1 0,0 7,-1 7,-1 0,0 -7,-1 -7,-1 0,0 7,-1 7,-1 0,0 -7,-1 -7,-1 0,0 7,-1 7,-1 0,0 -7,0 -7,0 0,0 0,-4 0,-4 0,0 7,-1 7,-1 0,0 -7,-1 -7,-1 0,0 7,-1 7,-1 0,0 -7,-1 -7,-1 0,0 7,-1 7,-1 0,0 -7,-1 -7,-1 0,0 7,-1 7,-1 0,0 -7,-1 -7,-1 0,0 7,-1 7,-1 0,0 -7,-1 -7,-1 0,0 7,-1 7,-1 0,0 -7,-1 -7,-1 0,0 7,-1 7,-1 0,0 -7,-1 -7,-1 0,0 7,-1 7,-1 0,0 -7,-1 -7,-1 0,0 7,-1 7,-1 0,0 -7,-1 -7,-1 0,0 7,-1 7,-1 0,0 -7,-1 -7,-1 0,0 7,-1 7,-1 0,0 -7,-1 -7,-1 0,0 7,-1 7,-1 0,0 -7,-1 -7,-1 0,0 7,-1 7,-1 0,0 -7,0 -7,0 0,0 0,-4 0,-4 0,0 7,-1 7,-1 0,0 -7,-1 -7,-1 0,0 7,-1 7,-1 0,0 -7,-1 -7,-1 0,0 7,-1 7,-1 0,0 -7,-1 -7,-1 0,0 7,-1 7,-1 0,0 -7,-1 -7,-1 0,0 7,-1 7,-1 0,0 -7,-1 -7,-1 0,0 7,-1 7,-1 0,0 -7,0 -7,0 0,0 0,-2 0,-2 z m -126,2 c 0,0 9,17 9,17 1.47,-5.45 3.9,-13.12 8,-17 0,0 -5.31,25 -5.31,25 0.25,3.51 5.41,12.93 7.55,15.94 4.69,6.57 10.39,2.27 12.31,10.06 1.67,6.77 -5.55,13.12 -11.12,7.57 -3.88,-3.87 -1.37,-9.01 -3.01,-13.57 -1.45,-4 -5.08,-6.95 -7.42,-12 -8.16,5.86 -10.6,9.26 -11.07,19 -0.61,12.81 -14.87,10.05 -13.66,0 0.84,-7.02 7.07,-6.53 9.52,-8.02 2.12,-1.28 3.56,-3.88 4.78,-5.98 1.47,-2.53 5.16,-9.36 5.62,-12 0.66,-3.69 -4.18,-21 -5.19,-26 z m -255,9 c 0,0 181,0 181,0 0,0 0,4 0,4 0,0 -181,0 -181,0 0,0 0,-4 0,-4 z m 446,0 c 0,0 190,0 190,0 0,0 0,4 0,4 0,0 -190,0 -190,0 0,0 0,-4 0,-4 z m -435,14 c 0,0 9,0 9,0 -1.01,7.62 2.54,20.55 5,28 1.8,-8.95 6.04,-19 4,-28 0,0 7,0 7,0 0,0 -9,35 -9,35 0,0 -5.86,-1.57 -5.86,-1.57 0,0 -3.27,-10.43 -3.27,-10.43 0,0 -3.88,-16 -3.88,-16 0,0 -2.99,-7 -2.99,-7 z m 28,0 c 0,0 9,0 9,0 -2.89,9.3 -3.32,25.83 0,35 0,0 -10,0 -10,0 0,0 2.72,-6 2.72,-6 0,0 0,-23 0,-23 0,0 -1.72,-6 -1.72,-6 z m 13,0 c 0,0 8.3,0.99 8.3,0.99 0,0 3.37,7.01 3.37,7.01 0,0 5.33,16 5.33,16 0,-12.03 0.55,-12.01 -2,-24 0,0 7,0 7,0 -3.45,11.09 -2,23.46 -2,35 0,0 -5.3,-0.99 -5.3,-0.99 0,0 -3.56,-8.01 -3.56,-8.01 0,0 -5.14,-17 -5.14,-17 0,8.78 -1.02,17.68 2,26 0,0 -8,0 -8,0 3.51,-8.31 2.68,-26.39 0,-35 z m 25,9 c 0.02,-2.09 -0.16,-5.73 1.17,-7.43 1.99,-2.52 16.18,-1.57 19.83,-1.57 0,0 0,9 0,9 -3.54,-1.38 -3.38,-2.4 -4,-6 -3.99,2.25 -3.91,3.58 -4,8 -0.06,3.6 -0.32,16.18 0.55,18.91 0,0 2.45,5.09 2.45,5.09 0,0 -10,0 -10,0 3.19,-10.24 2,-21.35 2,-32 0,0 -8,6 -8,6 z m 30,-9 c 0,0 6,0 6,0 0,0 9,35 9,35 0,0 -9,0 -9,0 0,0 1,-9 1,-9 0,0 -10,0 -10,0 0,0 0,9 0,9 0,0 -6,0 -6,0 0,0 9,-35 9,-35 z m 38,35 c 0,0 -11,0.63 -11,0.63 -11.37,-1.48 -9.1,-14.27 -9,-22.63 0.05,-3.48 0.11,-6.97 2.51,-9.77 3.81,-4.45 12.02,-3.04 17.49,-3.23 0,0 0,10 0,10 0,0 -5,0 -5,0 -1.78,-8.15 -6.81,-6.69 -8.4,-2.89 -0.92,2.18 -0.62,11.95 -0.6,14.89 0.02,2.47 -0.15,5.7 1.6,7.67 3.05,3.44 7.01,0.2 6.88,-3.64 -0.07,-1.86 -1.68,-4.29 -2.48,-6.03 0,0 8,0 8,0 0,0 0,15 0,15 z m 6,-35 c 0,0 17,0 17,0 0,0 0,8 0,8 -4.88,-2.85 -3.48,-4.47 -10,-5 0,0 0,13 0,13 0,0 7,-2 7,-2 0,0 0,8 0,8 0,0 -7,-3 -7,-3 0,0 0,13 0,13 7.45,-0.26 5.54,-1.81 11,-5 0,0 0,8 0,8 0,0 -19,0 -19,0 0,0 2.72,-6 2.72,-6 0,0 0,-23 0,-23 0,0 -1.72,-6 -1.72,-6 z m 298,0 c 0,0 9,0 9,0 -1.14,3.66 -3.37,10.12 -0.98,13.69 2.06,3.06 8.94,3.43 7.85,-6.69 -0.26,-2.42 -1.15,-4.69 -1.87,-7 0,0 8,0 8,0 -1.21,9.18 -2.53,26.64 1,35 0,0 -10,0 -10,0 3.88,-7.01 3,-8.27 3,-16 0,0 -9,0 -9,0 0,7.73 -0.88,8.99 3,16 0,0 -10,0 -10,0 3.32,-9.17 2.89,-25.7 0,-35 z m 25,35 c 3.95,-10.15 5.33,-17.6 7.88,-28 0.67,-2.7 1.81,-7.89 5.84,-6.34 2.82,1.08 3.32,6.7 3.93,9.34 1.98,8.64 4.14,16.77 7.35,25 0,0 -9.08,0 -9.08,0 0.92,-2.39 1.57,-4.37 0,-6.69 -1.99,-2.74 -6.9,-2.98 -8.81,0 -1.09,1.97 -0.44,4.57 0,6.69 0,0 -7.11,0 -7.11,0 z m 28,-35 c 0,0 8,0 8,0 0,0 -1.72,6 -1.72,6 0,0 0,23 0,23 0,0 2.72,6 2.72,6 0,0 -10,0 -10,0 3.57,-9.86 2.37,-24.6 1,-35 z m 13,0 c 4.86,0 14.04,-0.89 17.61,2.51 5.74,5.29 -0.09,17.61 0,19.49 -0.05,3.7 3.87,9.47 5.39,13 -11.84,2.2 -5.9,-8.86 -16,-14 0,0 2,14 2,14 0,0 -9,0 -9,0 3.32,-9.17 2.89,-25.7 0,-35 z m 46,25 c -0.05,1.93 0.03,4.08 -0.74,5.9 -2.41,5.69 -11.68,6.46 -15.96,2.59 -2.13,-1.93 -2.81,-4.74 -3.13,-7.49 -0.7,-6.15 -1.46,-20.41 3.96,-24.26 3.41,-2.42 11.48,-1.59 15.87,-1.74 0,0 0,10 0,10 0,0 -5,0 -5,0 -1.36,-3.89 -5.55,-8.98 -8.26,-2.88 -1.09,2.44 -0.78,12.67 -0.74,15.88 0.03,2.03 -0.01,4.95 1.17,6.68 2.37,3.47 6.75,1.92 7.83,-4.68 0,0 5,0 5,0 z m 4,-25 c 0,0 10,0 10,0 -0.9,2.29 -2.2,4.59 -2.76,7 -0.39,2.11 -0.37,14.69 0,17 0.37,3.06 2.51,8.54 6.62,6.83 3.54,-1.47 3.13,-6.71 3.14,-9.83 0.02,-9.2 0.8,-12 -2,-21 0,0 8,0 8,0 -2.92,9.37 -1.95,13.45 -2,23 -0.02,3.27 0.1,6.88 -2.01,9.61 -3.74,4.84 -12.69,4.13 -15.82,-1.66 -1.38,-2.56 -1.17,-6.11 -1.17,-8.95 -0.02,-9.38 0.86,-12.8 -2,-22 z m 26,0 c 0,0 20,0 20,0 0,0 1,9 1,9 0,0 -8,-6 -8,-6 0,10.65 -1.19,21.76 2,32 0,0 -10,0 -10,0 0,0 2.45,-5.09 2.45,-5.09 0.88,-2.78 0.57,-14.28 0.55,-17.91 -0.03,-4.67 0.36,-6.54 -4,-9 0,0 -1,6 -1,6 0,0 -3,0 -3,0 0,0 0,-9 0,-9 z m 30,25 c 0.15,1.82 0.1,4 1.58,5.34 2.74,2.49 5.86,-1.25 5.06,-5.33 -1.14,-5.88 -7.58,-5.31 -10.9,-10.12 -2.69,-3.88 -2.33,-11.98 2.47,-14.15 2.13,-0.96 10.79,-0.63 13.79,-0.74 0,0 0,10 0,10 0,0 -5,0 -5,0 -1.66,-7.57 -5.84,-6.33 -6.67,-2.88 -1.69,7.05 5.9,7.8 9.36,11.29 2.53,2.57 2.86,8.22 2,11.57 -1.86,7.19 -11.49,7.14 -15.26,3.51 -2.45,-2.36 -2.35,-5.36 -2.43,-8.49 0,0 6,0 6,0 z m -98.95,-7 c 1.85,-0.11 3.98,-0.07 5.64,-1.17 3.06,-2.05 3.09,-9.62 0.57,-12.09 -2.22,-2.18 -5.44,-1.68 -6.21,2.32 0,0 0,4.94 0,4.94 0,0 0,6 0,6 z m -413.05,-10 c 0,0 -4,15 -4,15 0,0 7,0 7,0 0,0 -3,-15 -3,-15 z m 377,0 c 0,0 -4,15 -4,15 0,0 7,0 7,0 0,0 -3,-15 -3,-15 z m -206.03,16.17 c -9.09,1.49 -5.41,12.91 0.98,10.99 5,-1.51 5.26,-8.4 -0.98,-10.99 z m -33.87,0.49 c -7.52,4.57 -2.33,12.09 2.77,10.5 4.76,-1.5 5.67,-11.1 -2.77,-10.5 z m 74.9,48.34 c 0.06,2.36 -0.05,5.64 1.73,7.46 2.77,2.82 6.4,-0.39 5.73,-4.46 -1.2,-7.37 -15.93,-14.15 -12.93,-27 1.98,-8.41 11.56,-9.58 16.19,-5.49 3.6,3.17 3.27,8.14 3.28,12.49 0,0 -6,0 -6,0 -0.14,-2.38 -0.2,-5.72 -2.41,-7.26 -2.74,-1.89 -5.39,1.51 -4.52,5.26 1.92,8.19 16.19,13.63 12.5,27 -2.25,8.14 -12.9,8.61 -16.92,4.43 -3.1,-3.22 -2.65,-8.3 -2.65,-12.43 0,0 6,0 6,0 z m -321,-30 c 0,0 181,0 181,0 0,0 0,4 0,4 0,0 -181,0 -181,0 0,0 0,-4 0,-4 z m 446,0 c 0,0 190,0 190,0 0,0 0,4 0,4 0,0 -190,0 -190,0 0,0 0,-4 0,-4 z m -337,41 c 0,0 30,7.35 30,7.35 0,0 66,13.23 66,13.23 30.62,4.75 63.05,8.37 94,8.42 0,0 24,1 24,1 0,0 11,-0.98 11,-0.98 0,0 17,0 17,0 0,0 11,-0.98 11,-0.98 36.75,-1.6 77.01,-7.56 113,-15.46 0,0 53,-12.58 53,-12.58 0,0 -16,23 -16,23 0,0 17,5.33 17,5.33 0,0 9,4.67 9,4.67 0,0 -34,8.35 -34,8.35 0,0 -68,13.23 -68,13.23 -33.4,5.18 -67.23,8.37 -101,8.42 0,0 -15,1 -15,1 0,0 -15,-1 -15,-1 0,0 -20,0 -20,0 0,0 -11,-0.96 -11,-0.96 -40.6,-1.77 -81.22,-7.8 -121,-16.25 0,0 -54,-12.79 -54,-12.79 0,0 9,-4.67 9,-4.67 0,0 17,-5.33 17,-5.33 0,0 -16,-23 -16,-23 z m 37,30 c 1.81,0.51 3.04,0.95 5,0.65 0.92,0.23 2.01,0.11 2.87,0 10.38,-4.59 -4.83,-17.61 -9.22,-10.36 -0.7,1.16 -1.42,4.3 -1.78,5.71 0,0 -1.87,8 -1.87,8 0,0 4,1 4,1 0,0 1,-5 1,-5 z m 340,-10.91 c -2.81,-0.75 -5.2,-1.38 -7.94,0 -3.69,2.07 -4.76,6.32 -0.83,8.74 2.12,1.3 5.35,1.15 7.77,1.17 -2.6,4.49 -4.33,2.99 -9,4 0,0 0,1.91 0,1.91 3.15,0.85 6.85,1.69 9.85,0 4.08,-2.49 3.43,-7.36 -0.91,-9.17 -1.94,-0.81 -4.84,-0.72 -6.94,-0.74 0,0 0,-3 0,-3 0,0 8,-1 8,-1 0,0 0,-1.91 0,-1.91 z m -17,1.91 c 0,0 -12,3 -12,3 0,0 4,17 4,17 4.83,-0.97 10.23,-0.94 12,-6 0,0 -9,2 -9,2 0,0 -1,-4 -1,-4 0,0 8,-3 8,-3 0,0 -9,0 -9,0 0,0 0,-4 0,-4 0,0 8,-1 8,-1 0,0 -1,-4 -1,-4 z m -321.19,0 c 0,0 3.03,1.27 3.03,1.27 6.15,4.03 -2.46,8.25 -3.03,2.58 -0.33,-0.99 0.04,-2.83 0,-3.85 z m 23.19,13 c 4.28,-2.42 5.48,-6.89 0.85,-9.86 -2.65,-1.71 -6.78,-2 -9.85,-2.14 0,0 -1.94,15.41 -1.94,15.41 0,0 2.94,1.59 2.94,1.59 0,0 0,-5 0,-5 0,0 10,7 10,7 0,0 -2,-7 -2,-7 z m 15,-7.52 c -13.59,3.92 -7.52,18.87 3,17.28 10.69,-1.62 9.98,-17.27 -3,-17.28 z m 268,0.52 c -2.33,-0.57 -4.58,-1.09 -7,-0.88 -14.67,1.26 -6.61,23.94 5.86,15.79 1.97,-1.28 2.12,-2 3.14,-3.91 -5.34,-0.05 -7.12,2.16 -9.85,0.87 -3.27,-1.53 -3.59,-5.92 -0.84,-8.12 2.31,-1.83 5.06,-1.15 7.69,-0.75 0,0 1,-3 1,-3 z m -289,-1 c 4.44,0.37 5.21,0.48 6,5 0,0 -7,0 -7,0 0,0 1,-5 1,-5 z m 49,5 c 0,0 -12,-2 -12,-2 -0.72,2.86 -3.33,14.21 -1.89,16.41 0.79,1.2 1.75,1.19 2.89,1.59 0,0 1,-7 1,-7 0,0 8,1 8,1 0,0 0,-3 0,-3 0,0 -7,-1 -7,-1 0,0 0,-4 0,-4 4.16,0.73 6.38,1.9 9,-2 z m 220,-2 c 0,0 -4,0 -4,0 0,0 2,17 2,17 0,0 4,0 4,0 0,0 -2,-17 -2,-17 z m -7,1 c -6.35,1.09 -3.53,3.21 -8,11 -2.28,-5.1 -3.13,-8 -9,-9 1.51,3.48 4.77,10.01 7.09,12.85 1.06,1.3 2.59,2.96 4.44,1.98 2.69,-1.41 4.61,-13.57 5.47,-16.83 z m -242.57,1.03 c 8.69,-3.18 10.29,6.08 5.35,8.93 -4.79,2.77 -10.7,-3.05 -5.35,-8.93 z m 45.57,1.78 c -2.51,0.07 -8.84,-1.04 -10.69,0 -2.98,1.17 -3.7,12.79 -4.31,16.19 0,0 13,2 13,2 0,0 1,-3 1,-3 -4.91,-1.52 -7.25,-0.73 -9,-6 0,0 8,1 8,1 0,0 0,-3 0,-3 -4.14,-0.34 -4.91,-0.29 -7,-4 0,0 8,1 8,1 0,0 1,-4.19 1,-4.19 z m 180,17.19 c -0.73,-1.8 -2.01,-4.13 -2.25,-6 -0.33,-2.54 1.61,-6.39 -1.45,-9.17 -2.76,-2.52 -8.75,-0.99 -12.3,-0.83 0,0 1,17 1,17 0,0 4,0 4,0 0,0 0,-6 0,-6 0,0 11,5 11,5 z m -164,-14 c -2.49,-0.93 -5.23,-2.17 -7.95,-1.53 -3.93,0.93 -5.42,5 -2.58,8.03 1.48,1.59 4.53,2.68 6.53,3.5 0,0 0,2 0,2 0,0 -10,-1 -10,-1 1.9,3.46 4.77,5.53 8.98,4.65 4.31,-0.9 6.35,-5.4 1.87,-8.84 -1.41,-1.08 -4.15,-2.11 -5.85,-2.81 0,0 0,-2 0,-2 0,0 1,-1 1,-1 0,0 7,2 7,2 0,0 1,-1 1,-1 0,0 0,-2 0,-2 z m 143,-1 c 0,0 -12,1 -12,1 0,0 1,17 1,17 0,0 13,-1 13,-1 0,0 0,-3 0,-3 0,0 -9,1 -9,1 0,0 -1,-4 -1,-4 0,0 8,-1 8,-1 0,0 0,-3 0,-3 0,0 -8,1 -8,1 0,0 0,-4 0,-4 4.1,-0.21 6.38,0.15 8,-4 z m -126,3 c -3.49,-1.62 -14.57,-3.79 -12.29,3.91 0.85,2.92 4.85,4.18 8.29,8.09 0,0 -9,-2 -9,-2 0,0 -1,1 -1,1 0,0 0,2 0,2 2.48,1.26 5.09,2.71 7.98,2.48 3.18,-0.26 6.31,-2.8 5.18,-6.27 -1.03,-3.14 -5.36,-4.41 -8.16,-5.21 0,0 0,-2 0,-2 0,0 7,1 7,1 0,0 2,-2 2,-2 0,0 0,-1 0,-1 z m 108,3 c -0.11,-9.57 -16.23,-2.25 -8.69,4.28 0.79,0.68 1.75,1.09 2.71,1.47 0,0 4.98,1.25 4.98,1.25 0,0 0,2 0,2 0,0 -8,-1 -8,-1 0,0 -2,2 -2,2 0,0 0,1 0,1 3.62,1.68 10.44,3.77 12.72,-1.14 0.57,-1.23 0.56,-2.49 0,-3.72 -1.85,-4.05 -5.45,-1.93 -8.72,-7.14 0,0 7,1 7,1 z m -100,-4 c 0,0 -2.98,1.59 -2.98,1.59 0,0 -2.02,15.41 -2.02,15.41 0,0 4,1 4,1 0,0 1,-18 1,-18 z m 10.02,1.43 c -11.68,4.86 -4.45,19.89 5.98,16.5 6.26,-2.04 8.39,-9.82 3.58,-14.5 -2.76,-2.69 -6.06,-2.5 -9.56,-2 z m 27.98,11.57 c -2.21,-5.18 -5.42,-10.28 -11,-12 0,0 -1,18 -1,18 0,0 4,0 4,0 0,0 1,-11 1,-11 2.92,5.67 5.34,9.92 12,11 0,0 0,-17 0,-17 0,0 -4,0 -4,0 0,0 -1,11 -1,11 z m 33,-12 c -1.23,0.43 -2.05,0.38 -2.99,1.59 -2.14,2.83 -0.48,12.87 0,16.41 0,0 10.99,-1 10.99,-1 0,0 0,-3 0,-3 0,0 -8,0 -8,0 0,0 0,-14 0,-14 z m 56,-1 c 0,0 6,0 6,0 -0.79,4.52 -1.56,4.63 -6,5 0,0 0,-5 0,-5 z m -63,19 c -0.64,-3.41 -5.17,-17.57 -9.77,-16.26 -3.12,0.9 -7.33,13.06 -8.23,16.26 0,0 9.03,-3.71 9.03,-3.71 0,0 8.97,3.71 8.97,3.71 z m -52.78,-14.24 c 8.63,-1.58 7.77,8.02 3.64,9.62 -5.41,2.1 -9.88,-5.18 -3.64,-9.62 z m 43.78,2.24 c 0,0 2,5 2,5 0,0 -4,0 -4,0 0,0 2,-5 2,-5 z" />
    <path
       style="fill:#000000;stroke-width:0.65201"
       d="M 43.175243,115.0063 C 39.970857,104.8764 34.009176,86.333509 29.927067,73.799871 23.941046,55.420504 22.631656,50.733566 23.159429,49.575233 c 0.788279,-1.73009 5.316586,-3.521621 15.61686,-6.178481 8.746301,-2.256032 13.618005,-2.405723 17.723245,-0.544586 5.489996,2.488929 7.615824,5.622074 10.80446,15.92414 2.235591,7.222898 2.242422,10.9575 0.0315,17.224306 -0.939295,2.66241 -1.707806,4.922573 -1.707806,5.022576 0,0.1 1.261877,0.74002 2.804173,1.422249 6.509944,2.879658 8.753213,6.332022 11.94354,18.380943 2.443959,9.23012 2.471203,14.31415 0.09834,18.35059 -2.185128,3.71709 -5.025301,6.18107 -9.303948,8.07163 -3.910755,1.728 -18.910665,6.17888 -20.817196,6.17702 -1.197299,-0.001 -2.014725,-2.09894 -7.177345,-18.41932 z m 18.157354,5.69387 c 8.771323,-2.28463 11.062811,-6.83929 8.475191,-16.84563 -1.443924,-5.583661 -5.010179,-13.054437 -6.845241,-14.339764 -0.928036,-0.650023 -2.820373,-1.076611 -4.775814,-1.076611 -4.32,0 -10.914697,1.401658 -10.601418,2.253256 0.13775,0.374438 2.273144,7.500249 4.745335,15.835139 2.472188,8.33489 4.653297,15.15655 4.84691,15.15926 0.193625,0.003 2.063378,-0.44084 4.155037,-0.98565 z M 51.461495,80.474562 c 4.668976,-2.007484 6.343782,-4.354234 6.334322,-8.875713 -0.01344,-6.416003 -2.865273,-14.597271 -6.170859,-17.70271 -2.195047,-2.062141 -6.766191,-2.409857 -11.512301,-0.87572 l -3.672656,1.187155 3.505453,11.736201 c 1.927999,6.454913 3.819361,12.863607 4.203034,14.241546 0.638457,2.293013 0.846035,2.468135 2.449241,2.066335 0.963414,-0.241438 3.152108,-1.041146 4.863766,-1.777094 z"
       id="path120" />
    <path
       style="fill:#000000;stroke-width:0.65201"
       d="M 96.71985,115.70557 C 96.499012,113.43902 95.440498,102.78241 94.367602,92.024226 92.481865,73.115545 89.684867,39.568924 89.510983,33.774941 c -0.113188,-3.771365 1.306158,-4.850908 8.642222,-6.57321 7.026055,-1.649521 7.828345,-1.670249 8.346735,-0.215625 0.22365,0.62756 5.76914,14.784356 12.32332,31.459543 13.71072,34.882848 19.50336,50.809381 18.73731,51.517111 -0.59467,0.54938 -9.3744,2.81601 -9.61758,2.48293 -0.084,-0.11503 -1.28632,-3.28987 -2.67187,-7.05523 -2.82302,-7.671785 -5.80794,-13.04023 -7.25054,-13.04023 -0.5281,0 -3.73039,0.340441 -7.1162,0.756529 -4.87548,0.59916 -6.15576,0.972136 -6.15476,1.793031 7.1e-4,0.570079 0.60124,5.70362 1.33456,11.40788 0.73332,5.70426 1.19785,10.72438 1.03228,11.15583 -0.16556,0.43145 -1.86638,0.98867 -3.7796,1.23827 -1.91322,0.2496 -4.094385,0.6048 -4.847033,0.78932 -1.252292,0.30703 -1.402533,-0.0144 -1.769977,-3.78552 z m 13.96616,-32.240331 c 3.18921,-0.583473 5.78667,-1.243636 5.77215,-1.467027 -0.12183,-1.874078 -14.29444,-39.51904 -14.96193,-39.741537 -0.70887,-0.236282 -0.79187,1.205324 -0.44825,7.786493 0.76341,14.621052 2.62972,34.482929 3.24018,34.482929 0.32962,0 3.20865,-0.477386 6.39785,-1.060858 z"
       id="path159" />
    <path
       style="fill:#000000;stroke-width:0.65201"
       d="m 152.02046,106.53148 c -0.28389,-0.81528 -11.84564,-59.604114 -14.95221,-76.028547 -1.86311,-9.850262 -1.70667,-10.738082 2.08138,-11.811725 3.985,-1.129469 17.84744,-3.278036 21.1506,-3.278174 9.48128,-3.96e-4 14.47988,3.4101 17.07972,11.653337 1.8814,5.965306 3.36162,16.542165 2.76221,19.737292 -0.23756,1.266289 -1.63196,4.292025 -3.09866,6.723863 l -2.66675,4.421522 4.33736,4.370844 c 4.89627,4.934082 4.07334,2.585494 8.86783,25.308403 1.53282,7.264604 2.667,13.323825 2.52042,13.464925 -0.1466,0.14109 -2.22819,0.46435 -4.62577,0.71834 -4.053,0.42936 -4.4698,0.35123 -5.93321,-1.11218 -1.62822,-1.628225 -1.85105,-2.544463 -4.08885,-16.812606 -1.31436,-8.380297 -3.04844,-13.179857 -5.87205,-16.252537 l -2.15259,-2.342472 -5.63021,0.09822 c -3.09661,0.05403 -5.77291,0.240938 -5.94734,0.415357 -0.17443,0.174438 1.25499,9.279004 3.17646,20.232395 l 3.4936,19.915263 -4.00099,0.69674 c -5.14262,0.89555 -6.15434,0.87714 -6.50095,-0.11828 z m 9.26694,-50.438213 c 1.87007,-0.511922 4.21731,-1.633483 5.21609,-2.49236 1.69111,-1.454227 1.83123,-1.958056 2.03792,-7.327964 0.37282,-9.685692 -2.51635,-18.05292 -6.96204,-20.162539 -1.83526,-0.870885 -3.32576,-0.999429 -7.52655,-0.649094 -2.88095,0.24025 -5.29108,0.49825 -5.35585,0.57331 -0.0648,0.07506 1.06696,7.235414 2.51497,15.911898 l 2.63272,15.775427 2.02131,-0.348954 c 1.11172,-0.191938 3.55137,-0.767801 5.42143,-1.279724 z"
       id="path198" />
    <path
       style="fill:#000000;stroke-width:0.65201"
       d="m 206.89857,95.741047 c -8.731,-71.35678 -10.32536,-85.72607 -9.56405,-86.1965871 1.43656,-0.8878431 17.33959,-2.1232928 23.6095,-1.8341383 7.19965,0.3320318 10.28287,1.5816173 12.93459,5.2422244 2.17673,3.004876 3.72945,9.266606 4.3036,17.355255 0.5315,7.48783 0.096,9.527505 -3.08506,14.449234 l -2.63168,4.071731 3.56671,3.178961 c 5.08236,4.529831 6.08062,7.020157 6.99268,17.444354 0.8781,10.035964 0.5646,14.044489 -1.41883,18.141708 -2.75228,5.685449 -7.64536,7.751455 -22.80254,9.627911 -4.45682,0.55176 -8.87429,1.133908 -9.81661,1.293677 -1.60877,0.27275 -1.73619,0.103468 -2.08831,-2.77433 z m 20.96514,-9.728861 c 4.15509,-1.971715 5.615,-9.650908 3.80778,-20.02907 -1.57064,-9.019557 -3.69812,-10.942025 -12.23527,-11.056226 -2.76723,-0.03703 -5.21083,0.109938 -5.43022,0.326601 -0.36479,0.360229 1.78247,25.350915 2.62055,30.498998 l 0.35887,2.204406 4.32353,-0.442957 c 2.37794,-0.243625 5.32758,-0.919413 6.55476,-1.501752 z M 222.5325,44.99011 c 3.83436,-1.819521 5.44664,-8.045918 4.1633,-16.078061 -0.99356,-6.21855 -2.42172,-9.446198 -4.70129,-10.625012 -2.58441,-1.336451 -7.63227,-1.844886 -9.83531,-0.990639 -3.22937,1.252216 -3.39135,2.657047 -1.86333,16.159508 0.76404,6.751538 1.38764,12.538003 1.38576,12.858816 -0.005,0.918767 8.24598,-0.0885 10.85087,-1.324612 z"
       id="path237" />
    <path
       style="fill:#000000;stroke-width:0.65201"
       d="M 262.24315,91.479301 C 261.96363,90.11307 261.65802,85.571551 259.6034,52.25154 259.0727,43.644993 258.15745,29.330047 257.56951,20.440552 256.98157,11.551056 256.68778,4.0905775 256.91665,3.8617103 257.55501,3.22335 269.65737,2.4501686 279.65038,2.4093244 l 8.96516,-0.036644 -0.001,4.7270817 -10e-4,4.7270819 -7.84008,0.09924 c -8.47779,0.107316 -10.74029,0.835163 -11.37102,3.658071 -0.17925,0.802328 0.0362,6.886769 0.47892,13.520985 l 0.80485,12.062205 8.7403,-0.244594 8.74031,-0.244594 -0.4295,4.156656 c -0.26188,2.534519 -0.81463,4.44226 -1.41632,4.888498 -1.31613,0.976073 -9.39497,1.734809 -12.89047,1.210627 l -2.79348,-0.41891 0.25715,4.780319 c 0.14144,2.629173 0.59249,9.914906 1.00234,16.190512 l 0.74519,11.410198 8.89739,-0.131313 c 10.10683,-0.149188 9.65792,-0.418088 9.67601,5.796477 l 0.009,3.057099 -2.77104,0.337975 c -1.52409,0.185875 -7.97973,0.47211 -14.34586,0.636045 -11.45676,0.295031 -11.57775,0.283688 -11.86351,-1.113036 z"
       id="path276" />
    <path
       style="fill:#000000;stroke-width:0.65201"
       d="m 337.39379,91.220616 -3.05663,-0.242563 -0.20343,-16.429209 c -0.195,-15.755585 -0.26407,-16.526615 -1.68072,-18.804837 -1.85644,-2.985342 -4.56845,-4.285372 -10.12789,-4.854954 l -4.36907,-0.447625 v 20.302389 20.302386 h -5.2161 -5.21611 v -6.66566 c 0,-3.666118 -0.29031,-11.368001 -0.64487,-17.115297 -0.35469,-5.747299 -0.72144,-22.824133 -0.81503,-37.948521 l -0.17,-27.498888 5.95013,-0.44606 c 7.3887,-0.55390053 21.39575,0.5592405 24.77525,1.9688891 2.9132,1.2151515 6.44326,4.3986609 7.84392,7.0738699 1.75422,3.350456 2.26966,9.163174 1.54879,17.465405 -0.79441,9.148726 -1.39838,10.83001 -5.53889,15.418861 l -3.09985,3.435483 2.72935,2.961001 c 1.50116,1.628549 3.10888,3.896849 3.57273,5.040664 0.57222,1.411064 0.983,7.686939 1.27769,19.520963 l 0.43431,17.4413 -2.46841,-0.117531 c -1.35766,-0.06462 -3.84391,-0.226688 -5.52507,-0.360079 z m -7.51938,-50.200333 c 2.66291,-1.5506 3.69285,-3.704462 4.47691,-9.362364 0.7476,-5.394827 -0.19937,-13.544566 -1.92038,-16.528158 -1.68828,-2.926802 -4.87038,-4.278722 -10.07382,-4.27992 l -4.40107,-10e-4 v 16.068384 16.068386 l 4.90922,-0.371285 c 3.03082,-0.229219 5.71273,-0.839148 7.00914,-1.59403 z"
       id="path315" />
    <path
       style="fill:#000000;stroke-width:0.65201"
       d="m 403.85586,96.246345 c -3.91054,-0.985398 -8.64373,-3.655399 -10.60639,-5.983096 -3.18913,-3.78224 -3.82969,-6.094056 -3.86535,-13.95009 -0.0403,-8.889484 0.25531,-9.391366 5.53576,-9.391366 5.80301,0 5.76573,-0.04034 5.36501,5.806127 -0.425,6.200437 0.42875,9.092598 3.47313,11.765589 1.82575,1.60304 2.84897,1.988622 5.27722,1.988622 2.65545,0 3.30007,-0.302501 5.44126,-2.553342 2.86238,-3.008998 4.25088,-7.670501 3.55501,-11.93502 -0.72519,-4.444157 -3.72929,-9.312073 -11.78105,-19.090216 -9.7827,-11.880217 -12.16086,-16.519246 -12.54065,-24.462555 -0.56384,-11.792839 4.02167,-20.0183319 12.54018,-22.4947343 9.55508,-2.777736 21.17141,0.4179522 25.60772,7.0447773 2.5846,3.860741 3.0907,7.084633 2.49173,15.872474 l -0.46997,6.895179 -3.68179,-0.44882 c -6.69217,-0.815795 -6.89273,-1.041964 -7.26782,-8.195893 -0.44678,-8.520053 -2.76157,-11.786773 -8.45792,-11.936137 -7.30273,-0.191485 -11.56783,10.358775 -7.60717,18.817381 0.83957,1.793031 4.44941,6.92762 8.02186,11.410198 12.67461,15.903546 14.22414,18.996219 14.21058,28.362489 -0.0125,7.582296 -1.42456,12.051274 -5.21135,16.47528 -4.30623,5.030845 -13.25046,7.711499 -20.03,6.003153 z"
       id="path354" />
    <path
       style="fill:#000000;stroke-width:0.65201"
       d="m 479.00282,105.6147 c -0.89654,-0.13241 -2.72745,-0.54137 -4.06876,-0.90879 -4.11219,-1.12644 -4.09538,-1.91878 0.55016,-25.955147 1.61891,-8.376225 2.8185,-15.354438 2.66581,-15.507138 -0.4169,-0.416898 -16.93896,-3.523843 -17.2239,-3.238924 -0.13562,0.135532 -1.40747,7.101964 -2.82653,15.48096 -1.41907,8.378997 -3.10894,17.288379 -3.75529,19.79862 l -1.17519,4.564079 -4.87397,0.18791 -4.87401,0.1879 5.83376,-44.524681 c 3.20856,-24.488574 5.91282,-44.626598 6.00944,-44.751164 0.0966,-0.124566 2.83666,0.137156 6.08898,0.581605 4.15591,0.567935 5.91329,1.071697 5.91329,1.695097 0,0.778988 -4.67879,31.04401 -5.48979,35.511001 l -0.30875,1.700603 9.18573,1.08677 c 5.05214,0.597726 9.28277,0.989705 9.40139,0.87107 0.16281,-0.162844 6.11973,-35.785051 6.11973,-36.596017 0,-0.292717 10.59614,1.517086 10.94917,1.870096 0.88188,0.881891 -14.80871,87.88529 -15.88443,88.07811 -0.33375,0.0598 -1.34034,4.3e-4 -2.23684,-0.13197 z"
       id="path393" />
    <path
       style="fill:#000000;stroke-width:0.65201"
       d="m 518.27353,114.8497 c -4.65241,-1.30392 -6.94957,-2.56883 -10.33889,-5.69298 -3.45719,-3.18675 -5.1856,-8.05517 -4.55157,-12.82055 1.13772,-8.551028 11.6032,-59.170684 12.78677,-61.847266 3.80988,-8.615931 12.1847,-11.74373 23.99135,-8.960213 6.87013,1.61969 11.44126,4.796504 13.97008,9.708827 2.62491,5.098935 2.05366,9.451095 -5.00745,38.149672 -3.47778,14.134848 -6.91232,27.27421 -7.63232,29.19857 -3.75204,10.0282 -13.26549,15.0533 -23.21797,12.26394 z m 8.29554,-10.42146 c 2.17135,-1.12285 4.17523,-4.15558 5.18023,-7.839935 0.39125,-1.434424 3.36888,-13.904139 6.61692,-27.710478 4.29194,-18.243683 5.79313,-25.713282 5.49419,-27.338094 -0.60725,-3.300461 -3.96829,-6.350984 -7.59704,-6.895147 -5.16198,-0.774086 -8.9053,2.203428 -10.58374,8.418543 -0.49315,1.826172 -3.30278,14.469703 -6.24357,28.096739 -6.00873,27.843069 -6.07063,28.692651 -2.34041,32.111162 2.62819,2.40856 6.20795,2.84585 9.47342,1.15721 z"
       id="path432" />
    <path
       style="fill:#000000;stroke-width:0.65201"
       d="m 558.38518,124.16663 c -1.34478,-0.35717 -2.45822,-0.98701 -2.47431,-1.39965 -0.0156,-0.41263 5.18038,-19.89492 11.54767,-43.293969 10.50933,-38.620466 11.69955,-42.543184 12.90649,-42.537788 2.33606,0.01031 13.99208,3.207408 19.15656,5.254186 6.84779,2.713895 11.7467,6.220788 13.66236,9.780233 1.40188,2.604804 1.52369,3.468924 1.23444,8.758045 -0.50569,9.246382 -5.65835,24.777333 -9.77642,29.467555 -3.46082,3.941659 -6.47954,5.096358 -13.16724,5.036636 -4.71832,-0.04212 -6.80557,-0.403469 -10.65273,-1.844137 -2.63154,-0.985455 -4.85745,-1.695387 -4.94642,-1.577624 -0.0891,0.11775 -1.85497,6.375615 -3.92447,13.906343 -2.06947,7.53073 -4.30154,14.93921 -4.9601,16.46329 -1.11904,2.58974 -1.35975,2.76663 -3.6791,2.70366 -1.36491,-0.0371 -3.58198,-0.35962 -4.92673,-0.71678 z m 35.17696,-40.26615 c 2.53329,-1.544649 3.63304,-3.586805 6.50095,-12.071974 2.82775,-8.366356 3.31838,-12.916275 1.72162,-15.966342 -1.56006,-2.98003 -6.18329,-5.351371 -10.67304,-5.474436 l -3.36432,-0.09222 -4.47985,15.322266 c -2.46391,8.427244 -4.48594,15.668514 -4.49341,16.091711 -0.0187,1.141583 6.39488,3.395974 9.76661,3.432215 1.81028,0.01937 3.73353,-0.455942 5.02144,-1.24122 z"
       id="path471" />
    <path
       style="fill:#000000;stroke-width:0.0815014"
       d="m 24.607812,217.36758 c -1.358342,-0.36761 -2.489657,-0.68833 -2.514032,-0.7127 -0.02437,-0.0244 -0.739869,-2.2566 -1.589993,-4.9605 l -1.545677,-4.91618 -1.983259,-8.15014 -1.983259,-8.15014 -1.312537,-3.07474 c -0.721891,-1.69111 -1.312533,-3.09396 -1.312533,-3.11743 0,-0.0234 1.677912,-0.0427 3.72869,-0.0427 h 3.72869 l 0.0053,2.42467 c 0.0056,2.56282 0.09384,3.72259 0.49101,6.45898 0.758679,5.2273 2.449972,12.02329 4.654935,18.70458 0.470238,1.42487 0.634813,1.83543 0.686079,1.71152 0.03709,-0.0897 0.237188,-0.9882 0.444622,-1.99678 0.354604,-1.72404 0.989695,-4.31215 2.029944,-8.27239 1.811999,-6.8983 2.406941,-10.45394 2.408466,-14.39412 6.53e-4,-1.64647 -0.136125,-3.49229 -0.319047,-4.30649 l -0.07413,-0.32997 h 2.803136 c 1.786406,0 2.803135,0.0291 2.803135,0.0803 0,0.0914 -8.635031,33.6888 -8.662216,33.70322 -0.0097,0.005 -1.129054,-0.29141 -2.487397,-0.659 z"
       id="path584" />
    <path
       style="fill:#000000;stroke-width:0.0815014"
       d="m 39.41334,218.00502 c 0.04156,-0.0784 0.592998,-1.28847 1.22539,-2.68895 l 1.149798,-2.54632 v -11.53601 -11.536 l -0.737363,-2.58471 c -0.405554,-1.42159 -0.756442,-2.64889 -0.779758,-2.72734 -0.03994,-0.13437 0.174594,-0.14262 3.712168,-0.14262 2.065006,0 3.754556,0.0169 3.754556,0.0372 0,0.0206 -0.144532,0.61645 -0.321204,1.3244 -0.789564,3.16405 -1.323261,6.85155 -1.648968,11.39335 -0.131969,1.84014 -0.130688,8.00456 0.002,9.78017 0.333479,4.4617 0.940617,8.08521 1.840144,10.98231 l 0.120218,0.38713 h -4.196293 c -3.970928,0 -4.192231,-0.008 -4.120703,-0.14262 z"
       id="path623" />
    <path
       style="fill:#000000;stroke-width:0.0815014"
       d="m 53.36173,218.07639 c 0,-0.0392 0.05569,-0.22909 0.12375,-0.42199 0.1975,-0.55975 0.661048,-2.32749 0.844401,-3.22007 0.708651,-3.44974 1.013108,-7.0299 1.011486,-11.8942 -0.0021,-6.40909 -0.648711,-12.49547 -1.825759,-17.18631 -0.133532,-0.53214 -0.231938,-0.97707 -0.218688,-0.98875 0.06025,-0.0531 7.081985,0.83222 7.144626,0.90082 0.03887,0.0426 0.799914,1.60024 1.691168,3.46143 l 1.620459,3.38398 2.608044,7.88722 2.608045,7.88721 0.48901,-0.0537 c 0.268969,-0.0294 0.516516,-0.07 0.550135,-0.0899 0.09294,-0.0552 0.073,-10.64442 -0.02281,-12.13102 -0.164313,-2.54878 -0.522242,-4.9618 -1.34504,-9.0681 -0.245031,-1.22285 -0.445507,-2.2406 -0.445507,-2.26166 0,-0.0209 1.246971,-0.0383 2.771048,-0.0383 1.524074,0 2.771045,0.0203 2.771045,0.0448 0,0.0247 -0.109438,0.45561 -0.243157,0.95764 -0.915814,3.43788 -1.469043,7.29567 -1.713074,11.9457 -0.122438,2.33324 -0.102219,8.92918 0.04362,14.22351 0.07053,2.56003 0.117094,5.09698 0.103531,5.63767 l -0.02469,0.98306 -2.159788,-0.40048 c -1.187883,-0.22028 -2.162625,-0.40592 -2.166094,-0.41255 -0.0034,-0.007 -0.778632,-1.75417 -1.722587,-3.88339 l -1.716277,-3.87132 -2.547498,-8.4354 c -1.401124,-4.63946 -2.558938,-8.44901 -2.572919,-8.46565 -0.01406,-0.0166 -0.260407,-0.005 -0.547598,0.0256 l -0.522175,0.0559 -0.07241,4.61992 c -0.13925,8.8864 -0.02219,12.02243 0.583704,15.64135 0.293501,1.75293 0.896467,4.27002 1.220608,5.09548 0.05275,0.13438 -0.128781,0.14263 -3.131267,0.14263 -1.764946,0 -3.187273,-0.0318 -3.187273,-0.0712 z"
       id="path958" />
    <path
       style="fill:#000000;stroke-width:0.163003"
       d="m 84.369781,217.82164 c 0.256188,-0.64588 1.065868,-4.65147 1.29324,-6.39786 0.545416,-4.18919 0.631235,-6.88568 0.521063,-16.37232 -0.05928,-5.10494 -0.140813,-9.31472 -0.181156,-9.35507 -0.04034,-0.0403 -1.798181,1.2207 -3.906287,2.80234 -2.108104,1.58164 -3.881547,2.87571 -3.940981,2.87571 -0.185282,0 0.08159,-3.46331 0.330328,-4.28671 0.324801,-1.07523 0.650923,-1.52298 1.380287,-1.89507 1.607555,-0.82012 6.537728,-1.19714 13.591592,-1.03939 l 4.525881,0.10122 v 3.81491 3.81491 l -0.671607,-0.37719 c -1.281924,-0.71995 -1.700587,-1.54391 -2.105844,-4.14443 -0.110219,-0.70721 -0.248969,-1.34063 -0.308375,-1.40758 -0.189657,-0.21379 -2.721117,1.47285 -3.483815,2.32115 -1.036448,1.15278 -1.251992,1.90659 -1.421914,4.97271 -0.325244,5.86879 -0.120625,17.63063 0.344441,19.79917 0.101281,0.47225 0.616001,1.74865 1.143823,2.83645 0.527823,1.08779 0.960021,2.03282 0.960439,2.10006 4.25e-4,0.0673 -1.840865,0.12225 -4.091743,0.12225 -3.832065,0 -4.085309,-0.0181 -3.979362,-0.28525 z"
       id="path997" />
    <path
       style="fill:#000000;stroke-width:0.163003"
       d="m 99.287769,218.05666 c 0,-0.0275 1.800771,-7.05101 4.001721,-15.60752 2.20095,-8.5565 4.15422,-16.16424 4.3406,-16.90609 l 0.33888,-1.3488 2.53528,0.0448 2.53528,0.0448 4.33946,16.87079 4.33946,16.87079 -3.74132,0.0438 c -2.05772,0.0241 -3.76027,0.0241 -3.78344,0 -0.0231,-0.0241 0.16959,-1.91428 0.42834,-4.20039 0.25875,-2.28611 0.47195,-4.28494 0.47374,-4.44182 0.003,-0.26622 -0.37194,-0.28525 -5.62032,-0.28525 h -5.6236 v 4.48257 4.48258 h -2.28204 c -1.25512,0 -2.282041,-0.0225 -2.282041,-0.0503 z m 13.855241,-10.91684 c 0,-0.18715 -2.80129,-14.34052 -3.0155,-15.23562 -0.0702,-0.29329 -0.20143,-0.36676 -0.65517,-0.36676 -0.31206,0 -0.5674,0.0281 -0.5674,0.0625 0,0.0344 -0.91684,3.50024 -2.03741,7.70188 -1.12058,4.20164 -2.03747,7.73103 -2.03754,7.8431 -10e-5,0.15768 0.93979,0.20375 4.15645,0.20375 3.27107,0 4.15657,-0.0445 4.15657,-0.20888 z"
       id="path1036" />
    <path
       style="fill:#000000;stroke-width:0.163003"
       d="m 133.08591,218.44444 c -3.79195,-1.02377 -5.9178,-3.52906 -6.83542,-8.05546 -0.36877,-1.81904 -0.45076,-5.72603 -0.24684,-11.76092 0.21566,-6.38173 0.4231,-7.81411 1.40127,-9.67558 1.1917,-2.2678 3.17529,-3.64897 6.14414,-4.27814 1.81852,-0.38539 6.24215,-0.57406 9.3012,-0.39669 l 2.07829,0.1205 v 4.38968 4.38968 l -1.97162,-0.0458 -1.97162,-0.0458 -0.36444,-1.14102 c -0.69154,-2.16508 -1.75323,-3.65981 -3.10162,-4.36669 -1.57285,-0.82455 -3.68736,-0.23229 -4.98378,1.39596 -1.48306,1.86265 -1.67442,3.52154 -1.5854,13.74398 0.0551,6.33097 0.10191,7.45201 0.34613,8.29652 0.4236,1.46473 0.8997,2.30325 1.76991,3.11723 0.98584,0.92214 1.65522,1.20391 2.86004,1.20391 2.42901,0 4.38336,-2.12968 4.566,-4.97561 0.0925,-1.44156 -0.16488,-2.38033 -1.23905,-4.51931 l -0.79812,-1.58927 h 3.23678 3.23679 v 6.91763 6.91763 l -0.69276,0.0863 c -0.38102,0.0475 -2.15979,0.16316 -3.95282,0.25706 -1.79303,0.0939 -3.88354,0.20635 -4.64558,0.24985 -1.05313,0.0601 -1.66524,0.003 -2.55149,-0.23572 z"
       id="path1075" />
    <path
       style="fill:#000000;stroke-width:0.163003"
       d="m 151.67192,217.57714 c 0.12519,-0.29138 0.63964,-1.4341 1.14321,-2.53941 l 0.91558,-2.00964 v -11.84585 -11.84585 l -0.63513,-2.22244 c -0.34932,-1.22234 -0.68434,-2.3775 -0.7445,-2.56703 l -0.10937,-0.34461 h 7.83512 7.83512 v 3.18777 3.18777 l -0.45239,-0.26722 c -0.24881,-0.14697 -1.07401,-0.81153 -1.83378,-1.47678 -2.05304,-1.79765 -3.51506,-2.40448 -6.31223,-2.61999 l -1.34477,-0.10361 v 7.18739 7.18738 l 0.77426,-0.22584 c 2.65814,-0.77532 6.0013,-1.71262 6.10855,-1.71262 0.0695,0 0.12631,1.39367 0.12631,3.09705 0,1.70338 -0.0417,3.09705 -0.0926,3.09705 -0.0916,0 -6.55818,-2.74236 -6.7942,-2.88132 -0.0673,-0.0396 -0.12225,3.20334 -0.12225,7.20649 v 7.27845 l 1.58927,-0.11125 c 3.36774,-0.23571 4.74597,-0.72753 6.64237,-2.37023 1.14079,-0.98818 2.42158,-1.95002 2.59666,-1.95002 0.0511,0 0.0929,1.39367 0.0929,3.09705 v 3.09705 h -8.72284 -8.72284 z"
       id="path1114" />
    <path
       style="fill:#000000;stroke-width:0.65201"
       d="m 311.76194,330.34006 c -3.22747,-0.28594 -10.98611,-0.55072 -17.24143,-0.58869 -10.6582,-0.0647 -15.12147,-0.30031 -39.15755,-2.06844 -26.49596,-1.94891 -60.38571,-6.70714 -89.97755,-12.63314 -12.05516,-2.41416 -62.58054,-14.3224 -62.58728,-14.75109 -0.0122,-0.76848 7.78699,-4.025 15.31646,-6.39542 5.59155,-1.76033 7.80346,-2.7436 7.75167,-3.44588 -0.0398,-0.54049 -3.19396,-5.45058 -7.00912,-10.91133 -3.81516,-5.46075 -6.93665,-10.01776 -6.93665,-10.12669 0,-0.10893 5.20794,1.08128 11.5732,2.6449 17.03557,4.18476 80.14765,16.81625 93.72661,18.75879 27.94204,3.99725 44.61789,5.42442 76.93734,6.58452 37.41915,1.34316 69.93163,0.13572 106.59744,-3.95875 34.52089,-3.85495 58.53646,-8.32033 106.28421,-19.76213 10.22027,-2.44909 18.68241,-4.37077 18.80475,-4.2704 0.1225,0.10037 -3.06785,4.92173 -7.08929,10.71413 -4.02148,5.7924 -7.05561,10.76477 -6.74254,11.04971 0.31303,0.28494 4.09004,1.58902 8.39332,2.89797 7.13176,2.16929 14.66231,5.40239 14.66796,6.29743 0.009,1.50684 -86.96747,19.46377 -110.1876,22.7489 -26.18051,3.70395 -49.3952,5.65526 -78.07668,6.5627 -11.02807,0.34894 -22.10487,0.7555 -24.61509,0.9035 -2.51026,0.14813 -7.20473,0.0353 -10.43218,-0.25062 z m 19.70078,-7.32923 4.90198,2.01778 -0.41319,-2.58384 c -0.62997,-3.93967 -3.455,-10.48358 -5.70323,-13.21109 -3.89444,-4.72463 -7.27926,-2.45031 -11.23551,7.5493 -0.95288,2.40844 -1.90941,5.26347 -2.12563,6.34454 l -0.3931,1.96556 5.03336,-2.05 5.03335,-2.05004 z m -28.80948,-2.73979 0.44925,-4.19519 2.05707,2.72816 c 2.03219,2.69519 6.76004,5.66223 9.02258,5.66223 1.06428,0 1.16584,-0.79525 1.16584,-9.12817 v -9.12814 h -2.93403 -2.93407 l -0.009,2.77103 c -0.0156,4.29051 -0.84444,4.95645 -2.61125,2.09766 -1.43419,-2.32053 -6.55529,-6.17272 -8.20608,-6.17272 -0.53103,0 -0.92043,1.87906 -1.18225,5.7051 -0.21468,3.13778 -0.52344,7.53888 -0.68603,9.78017 l -0.29562,4.07507 h 2.85762 2.8576 z m 46.36898,3.54317 c 2.11613,0 2.18638,-0.0838 2.18638,-2.60804 v -2.60804 h -3.91207 -3.91207 V 311.752 c 0,-5.77851 -0.15906,-6.8461 -1.02088,-6.8461 -3.68731,0 -5.19413,3.74794 -4.55419,11.32776 0.74144,8.78217 0.54019,8.46755 5.11032,7.98986 2.15385,-0.225 4.89997,-0.40931 6.10251,-0.40931 z m -77.0894,-10.92118 c 0.24191,-5.11013 0.26563,-9.29117 0.0528,-9.29117 -0.77855,0 -4.23476,2.00338 -4.24706,2.46179 -0.007,0.25969 -0.43778,3.40632 -0.95734,6.99238 -1.36456,9.41824 -1.39294,9.2253 1.45903,9.92142 1.64584,0.40172 2.57706,0.3696 2.84893,-0.0981 0.22216,-0.38225 0.60181,-4.87604 0.84371,-9.98617 z m 17.82969,9.62067 c 6.43888,-3.92582 6.15529,-13.11805 -0.50797,-16.46577 -6.45642,-3.24382 -14.33424,1.08475 -14.32881,7.87314 0.005,5.68257 4.16324,9.88826 9.77774,9.88826 1.78009,0 3.76978,-0.50953 5.05904,-1.29563 z m 81.59899,-0.95078 c 1.0075,-0.521 2.20213,-1.84131 2.65475,-2.93404 1.26213,-3.047 -0.0803,-5.59357 -3.99369,-7.57669 -1.74113,-0.88232 -3.16569,-1.74941 -3.16569,-1.92691 0,-0.1775 1.17363,-0.135 2.60807,0.0944 2.52087,0.4031 2.60803,0.35607 2.60803,-1.40797 0,-4.46463 -5.93445,-5.87982 -9.87855,-2.35575 -4.07366,3.63982 -2.15709,8.12504 4.33645,10.14836 l 3.26007,1.01581 -3.77426,-0.39325 c -3.07307,-0.32019 -4.01182,-0.17813 -5.05307,0.76409 -2.2015,1.99232 -1.62231,3.41823 1.81819,4.47617 4.02398,1.23734 6.32267,1.26303 8.5797,0.0959 z m -109.42828,-1.61063 c 1.1143,-1.11428 1.90588,-2.59944 1.90588,-3.57575 0,-2.24004 -2.98939,-5.43626 -6.1941,-6.6227 l -2.60805,-0.96556 3.46131,0.40728 c 2.77983,0.32712 3.7105,0.18187 4.72708,-0.73822 3.08069,-2.78797 0.15575,-4.84401 -6.90229,-4.85182 -4.35239,-0.006 -6.17618,1.2895 -6.17618,4.38316 0,1.94347 0.5166,2.85182 2.9455,5.1791 3.15515,3.02316 3.13605,3.16648 -0.291,2.1836 -2.63284,-0.75506 -3.95852,0.025 -3.95852,2.333 0,2.09663 3.89838,4.1071 8.03729,4.14498 2.63006,0.025 3.46039,-0.28438 5.05309,-1.87707 z m 128.55906,0.65372 c 1.61453,-0.0466 1.79303,-0.28562 1.79303,-2.40006 v -2.34823 l -4.47244,0.44916 c -3.65035,0.3666 -4.54098,0.27063 -4.84516,-0.52209 -0.51144,-1.33279 0.0606,-1.74919 2.41716,-1.75963 3.98666,-0.0188 4.94441,-0.60528 4.94441,-3.03357 v -2.23838 l -3.91207,0.4426 c -3.24082,0.36666 -3.91207,0.27469 -3.91207,-0.53631 0,-0.63485 0.90003,-1.12282 2.56085,-1.38838 1.66638,-0.26656 3.03282,-1.0095 3.91207,-2.12732 2.08997,-2.65697 1.77828,-3.56841 -1.09382,-3.19825 -1.34478,0.17344 -4.43972,0.49506 -6.87766,0.71497 l -4.4326,0.39987 0.38922,7.27986 c 0.21406,4.00394 0.52206,8.16463 0.6844,9.24604 l 0.29532,1.96619 5.37819,-0.44731 c 2.95804,-0.24594 6.1851,-0.47066 7.17126,-0.49916 z m -146.2041,-1.51306 c 0.69106,-0.43157 1.60276,-1.62072 2.02601,-2.64254 1.20896,-2.91866 -0.50603,-5.81594 -4.57221,-7.7242 -1.80282,-0.84606 -3.28989,-1.93644 -3.30459,-2.42306 -0.0153,-0.50607 0.37444,-0.73082 0.91051,-0.5251 5.67305,2.17694 8.19092,1.78969 8.19092,-1.25978 0,-1.29822 -0.55408,-1.69306 -3.63113,-2.5876 -4.0727,-1.18394 -6.40342,-0.86362 -8.59408,1.18119 -3.1393,2.93026 -1.29821,7.57254 4.07507,10.27527 l 2.60805,1.31181 -5.50329,-0.42747 -5.50329,-0.42747 1.3979,2.20782 c 2.64841,4.18288 7.91625,5.5291 11.90013,3.04113 z m -14.44243,-1.82447 c 0.6316,-1.81179 0.54958,-2.03538 -0.95667,-2.60807 -0.90613,-0.3445 -1.90799,-0.62638 -2.22639,-0.62638 -1.18494,0 -3.84023,-1.51106 -4.17129,-2.37378 -0.27588,-0.71891 0.35309,-0.81138 3.22419,-0.47394 l 3.56692,0.41922 v -2.28847 c 0,-2.16016 -0.14413,-2.3115 -2.57063,-2.69954 -4.00119,-0.63981 -4.17991,-1.95537 -0.1911,-1.40675 3.60562,0.49588 3.75294,0.39563 4.38734,-2.986 l 0.43996,-2.34518 -4.95957,-0.44942 c -6.25502,-0.56682 -8.17486,0.2225 -9.37527,3.85447 -1.12745,3.41123 -2.43902,13.21074 -1.84732,13.80243 0.52832,0.52831 8.84813,1.98735 11.93378,2.09282 1.73077,0.0591 2.16433,-0.2425 2.74607,-1.91141 z m 170.3892,-0.59766 0.20062,-2.57935 5.54211,2.51463 c 3.04816,1.38303 5.62282,2.43857 5.72147,2.3456 0.0988,-0.0928 -0.41478,-1.55519 -1.141,-3.24938 -0.87409,-2.03919 -1.32041,-4.5116 -1.32041,-7.31458 0,-3.81053 -0.19062,-4.42485 -1.90587,-6.14004 -1.63226,-1.63225 -2.40457,-1.90484 -5.37911,-1.89872 -1.91025,0.003 -4.57666,0.18969 -5.92535,0.41247 l -2.45213,0.40528 0.36285,6.27067 c 0.19969,3.44885 0.51412,7.5176 0.69903,9.0417 0.33081,2.72632 0.37706,2.77104 2.86685,2.77104 2.47919,0 2.53466,-0.0525 2.73106,-2.57932 z m -195.45793,-4.6416 0.43893,-3.30885 4.20915,0.45075 4.20914,0.45075 v -2.31106 -2.31107 l -3.58606,-0.44806 c -2.82036,-0.35238 -3.58607,-0.69335 -3.58607,-1.59685 0,-0.96631 0.44132,-1.09906 2.77795,-0.83569 2.38355,0.26875 3.03152,0.0594 4.56407,-1.47303 0.98238,-0.98238 1.78614,-1.98141 1.78614,-2.22008 0,-0.23866 -3.00021,-0.91579 -6.66714,-1.50471 -4.941,-0.79354 -6.78656,-0.87753 -7.12841,-0.3244 -0.64646,1.04599 -2.50766,11.45398 -2.50605,14.01408 0.001,2.36697 1.91338,4.72707 3.82939,4.72707 0.97409,0 1.3085,-0.667 1.65896,-3.30885 z m 219.14859,1.74322 c 0.56422,-0.86109 1.83975,-4.89541 2.83457,-8.96514 l 1.80872,-7.39954 -1.55766,-0.21037 c -2.46263,-0.33261 -4.51201,1.48935 -5.70067,5.06813 -0.59865,1.80237 -1.31109,3.41463 -1.58319,3.58278 -0.27218,0.16813 -0.97159,-0.69422 -1.5544,-1.91644 -1.26572,-2.65425 -3.38973,-4.16475 -6.58551,-4.68336 l -2.35216,-0.3817 1.36656,3.08937 c 1.82882,4.13432 5.37892,10.10517 7.08426,11.91486 1.88294,1.99816 4.89685,1.95054 6.23948,-0.0984 z m 13.34327,-0.2275 c -0.003,-0.62756 -0.44297,-4.65073 -0.978,-8.94036 -0.53507,-4.28966 -0.97282,-8.03057 -0.97282,-8.31315 0,-0.28259 -1.34362,-0.51379 -2.98588,-0.51379 -2.90919,0 -2.97666,0.046 -2.62869,1.79303 0.19657,0.98617 0.67929,4.87378 1.07304,8.63917 0.39375,3.76534 0.83393,7.21285 0.97822,7.6611 0.1525,0.47388 1.36259,0.81503 2.89084,0.81503 2.07063,0 2.62738,-0.24218 2.62329,-1.14103 z m -242.56365,-3.91207 c 3.192,-3.20657 3.8073,-6.2827 2.0509,-10.25331 -2.32208,-5.24945 -8.4523,-7.44172 -13.31001,-4.75989 -5.1376,2.83636 -6.88279,7.54716 -4.53047,12.22917 1.77557,3.53403 4.84314,5.22907 9.46328,5.22907 3.63046,0 4.05612,-0.16438 6.3263,-2.44504 z m 258.22967,1.13463 c 2.42116,-1.23519 5.11582,-4.86273 4.25307,-5.72548 -0.21687,-0.21719 -2.48232,-0.0366 -5.03394,0.40094 -4.13198,0.70856 -4.77151,0.67597 -5.84758,-0.29781 -1.49878,-1.35638 -1.55978,-3.98626 -0.12906,-5.56707 0.78422,-0.86655 2.01391,-1.19236 4.50029,-1.19236 3.25416,0 3.45632,-0.10069 4.13997,-2.06176 0.39529,-1.13398 0.5711,-2.20939 0.39066,-2.38982 -0.18031,-0.18044 -2.60231,-0.45429 -5.38201,-0.60859 -4.51107,-0.2504 -5.29913,-0.11368 -7.33604,1.27263 -7.00729,4.76921 -3.08188,17.46073 5.40507,17.47548 1.35907,0.002 3.62691,-0.58541 5.03967,-1.30613 z m -278.42134,-1.17928 c 0,-0.29344 -0.44582,-2.03491 -0.9907,-3.86973 -0.97979,-3.29932 -0.97261,-3.35419 0.65201,-4.97879 1.22051,-1.22052 1.64272,-2.32866 1.64272,-4.31154 0,-4.39396 -3.04063,-6.41502 -11.13782,-7.40312 l -2.98767,-0.36459 -0.80315,7.30766 c -0.44173,4.01921 -0.94599,7.80588 -1.12057,8.41479 -0.21478,0.74909 0.31539,1.43434 1.63941,2.11903 2.60165,1.34538 2.6736,1.31997 2.6736,-0.94413 0,-1.07581 0.22006,-1.93478 0.489,-1.90881 0.26897,0.025 2.39614,1.47175 4.72709,3.21285 4.29325,3.20684 5.21608,3.68919 5.21608,2.72638 z m 292.45305,-1.10654 c 3.95526,-1.00581 7.4721,-3.7736 7.4721,-5.88063 0,-1.01657 -0.30281,-0.99435 -6.04613,0.44328 -4.89147,1.22444 -5.19182,-1.35872 -0.36162,-3.10994 4.98228,-1.80637 4.84141,-2.85273 -0.38401,-2.85273 -3.76234,0 -4.29241,-0.15097 -4.29241,-1.22252 0,-1.28775 2.22001,-2.03753 6.03295,-2.03753 1.93544,0 1.95281,-0.0314 1.51866,-2.74657 -0.24157,-1.51062 -0.5596,-2.86696 -0.70672,-3.01409 -0.37857,-0.37857 -12.26327,2.55855 -12.97508,3.20659 -0.4746,0.43208 1.51587,10.75729 3.28906,17.06133 0.39294,1.39691 1.46138,1.42219 6.4532,0.15281 z m 19.80087,-5.17516 c 2.35648,-1.21857 3.6552,-4.23981 2.85479,-6.64106 -0.86344,-2.59027 -3.52823,-4.28442 -7.31082,-4.64788 -1.81976,-0.17484 -3.30863,-0.53977 -3.30863,-0.81093 0,-0.6187 2.38656,-1.2765 4.67375,-1.28821 2.70791,-0.0137 3.80238,-0.67146 3.80238,-2.28465 0,-0.98804 -0.49044,-1.61566 -1.46703,-1.87738 -2.317,-0.62093 -6.15304,-0.47596 -7.8487,0.29663 -1.90025,0.86582 -3.72451,3.81347 -3.72451,6.01819 0,2.21896 3.09645,4.70406 6.62264,5.31509 l 2.83154,0.49067 -1.95604,0.87695 c -1.07581,0.48233 -2.9096,0.8902 -4.07507,0.90637 -1.90194,0.0263 -2.11903,0.22516 -2.11903,1.94008 0,1.46307 0.34369,1.97688 1.46703,2.19325 3.29526,0.63469 7.83586,0.40329 9.5577,-0.48712 z m -340.2904,-0.95535 c 0,-2.88197 0.62689,-3.31338 4.81477,-3.31338 4.66019,0 6.61886,-1.05017 7.24091,-3.88231 0.95973,-4.36965 -4.02576,-9.80993 -8.98984,-9.80993 -3.58851,0 -4.78162,0.88605 -5.91788,4.39487 -0.85319,2.63469 -3.01606,11.42169 -3.01606,12.25325 0,0.29782 3.78321,1.45779 5.05309,1.54938 0.44826,0.0325 0.81501,-0.504 0.81501,-1.19188 z"
       id="path1227" />
    <path
       style="fill:#000000;stroke-width:0.163003"
       d="m 150.01949,294.51798 c -0.55309,-0.2666 -0.97946,-1.07594 -1.14167,-2.16717 -0.15882,-1.06837 -0.0827,-2.68568 0.12634,-2.68568 0.0727,0 0.60333,0.21144 1.17931,0.46986 2.33947,1.04965 3.35699,2.72047 2.33096,3.82757 -0.66941,0.72231 -1.68133,0.94758 -2.49494,0.55542 z"
       id="path1266" />
    <path
       style="fill:#000000;stroke-width:0.163003"
       d="m 165.30391,297.91471 c 0,-0.12459 0.14672,-0.93954 0.326,-1.81097 0.17932,-0.87143 0.32601,-1.62355 0.32601,-1.67138 0,-0.19306 2.37892,0.15044 3.02689,0.43708 0.84093,0.37199 1.16848,0.84093 1.55106,2.22063 l 0.2915,1.05121 h -2.76073 c -2.24813,0 -2.76072,-0.0421 -2.76072,-0.22657 z"
       id="path1305" />
    <path
       style="fill:#000000;stroke-width:0.163003"
       d="m 186.29019,307.53587 c -1.82784,-0.68213 -3.01714,-2.51601 -2.86006,-4.41016 0.0799,-0.96322 0.83733,-2.67801 1.53813,-3.48219 0.3937,-0.45177 0.66527,-0.57532 1.74031,-0.79173 1.66046,-0.33427 2.74212,-0.20019 3.87928,0.48079 2.8229,1.6905 2.29203,6.31722 -0.91502,7.97473 -0.82799,0.42793 -2.53866,0.5435 -3.38264,0.22843 z"
       id="path1344" />
    <path
       style="fill:#000000;stroke-width:0.163003"
       d="m 282.91043,318.53826 c -2.32984,-1.06206 -3.26028,-3.65322 -2.13656,-5.95001 0.60231,-1.23109 1.86856,-2.498 2.64163,-2.64303 0.92237,-0.17313 2.53922,0.0188 3.26422,0.39 1.38344,0.70578 2.0956,1.97625 2.07338,3.69881 -0.025,2.02676 -1.37329,4.14779 -2.92754,4.60935 -0.95556,0.28376 -2.15703,0.24032 -2.91513,-0.105 z"
       id="path1383" />
    <path
       style="fill:#000000;stroke-width:0.163003"
       d="m 325.91775,314.76857 c 0.28281,-0.71666 0.55112,-1.30304 0.59593,-1.30304 0.0447,0 0.31301,0.58638 0.59594,1.30304 l 0.51441,1.30303 h -1.11035 -1.11034 z"
       id="path1422" />
    <path
       style="fill:#000000;stroke-width:0.163003"
       d="m 399.04995,307.20671 v -1.89331 h 2.37647 2.3765 l -0.11093,0.52975 c -0.14844,0.70812 -0.68094,1.917 -0.99982,2.26934 -0.32434,0.35841 -1.48869,0.73647 -2.70491,0.87826 l -0.93725,0.10937 z"
       id="path1461" />
    <path
       style="fill:#000000;stroke-width:0.326007"
       d="m 323.12118,270.84112 c -4.67582,-0.98139 -6.59332,-3.7235 -6.88342,-9.8436 l -0.16718,-3.52544 h 2.28747 2.28744 l 0.20375,1.01876 c 0.11219,0.56033 0.20687,1.47721 0.21094,2.03754 0.009,1.3093 0.9845,3.41854 2.02212,4.37323 1.76798,1.62665 4.63542,1.01135 5.85117,-1.25553 0.91813,-1.71191 0.80588,-4.70255 -0.25125,-6.69596 -0.82041,-1.54702 -1.58697,-2.53085 -6.83245,-8.7692 -5.45054,-6.48218 -6.83479,-12.28862 -4.20904,-17.65541 2.31466,-4.73101 8.76002,-6.37027 13.24343,-3.36823 2.65666,1.77889 3.85026,4.62756 3.85726,9.20593 l 0.003,2.52655 h -2.26207 -2.26206 l -0.20281,-1.54853 c -0.51247,-3.91327 -2.06232,-5.9496 -4.52826,-5.9496 -1.62041,0 -2.94057,1.12627 -3.46547,2.95643 -0.97269,3.39158 0.51843,6.61831 5.71438,12.36583 3.26057,3.60671 5.50926,6.79948 6.39841,9.0847 0.92397,2.37476 0.99991,6.2633 0.175,8.96184 -1.32418,4.33204 -6.39519,7.08733 -11.19132,6.08069 z"
       id="path1500" />
    <path
       style="fill:#000000;stroke-width:0.163003"
       d="m 382.66814,258.51958 c -8.20085,-7.8909 -21.48059,-20.99635 -37.40933,-36.91836 -13.58234,-13.57658 -24.74448,-24.68469 -24.80476,-24.68469 -0.0603,0 -0.69094,0.75185 -1.40141,1.67078 -0.71047,0.91893 -1.94144,2.40429 -2.73553,3.30081 -0.79407,0.89651 -11.53977,11.71583 -23.87935,24.04291 -12.33958,12.32709 -25.1793,25.23141 -28.53269,28.67626 -3.35339,3.44486 -7.12399,7.21581 -8.37911,8.37991 -2.43878,2.26191 -5.9606,5.20489 -6.08261,5.08289 -0.19747,-0.19747 4.65008,-5.11598 34.62324,-35.12994 23.48657,-23.51851 32.48971,-32.63436 32.9623,-33.37501 1.609,-2.52151 1.24969,-4.47062 -1.37016,-7.43265 -1.20219,-1.3592 -51.5594,-51.67807 -58.34547,-58.30105 -2.06514,-2.01551 -4.40643,-4.39807 -5.20288,-5.29458 -1.53339,-1.72607 -4.03626,-4.99072 -3.91734,-5.10963 0.0906,-0.0906 1.52167,0.8951 2.95465,2.03517 2.29426,1.8253 5.27156,4.67791 9.75878,9.35006 8.19527,8.53304 56.29773,56.45194 57.41986,57.20076 2.52666,1.68607 4.40779,1.5613 6.94376,-0.46055 0.5495,-0.4381 15.15987,-14.97927 32.46745,-32.31369 17.30762,-17.33443 31.96127,-31.9494 32.56371,-32.47771 0.6024,-0.52831 1.13237,-0.92348 1.17769,-0.87817 0.22781,0.22791 -21.02825,21.92664 -43.95654,44.87167 -14.15467,14.16505 -25.73578,25.83284 -25.73578,25.92841 0,0.0956 8.51329,8.45753 18.91846,18.58213 16.61465,16.16667 20.91709,20.46161 35.33087,35.26926 18.76399,19.27678 19.67571,20.22288 19.48587,20.22046 -0.0766,-9.7e-4 -5.86085,-5.50693 -12.85368,-12.23545 z"
       id="path1539" />
    <path
       style="fill:#000000;stroke-width:0.163003"
       d="m 279.62208,220.70945 c -2.08838,-0.41828 -4.13996,-2.33602 -4.96395,-4.64009 -0.299,-0.83603 -0.36764,-1.51055 -0.47292,-4.64635 -0.084,-2.50088 -0.21069,-4.03122 -0.39816,-4.80858 -0.40169,-1.66557 -1.52436,-3.8007 -3.21429,-6.11308 -2.30562,-3.15486 -3.51252,-4.99937 -4.17226,-6.3765 -0.33295,-0.69501 -0.64204,-1.26743 -0.68686,-1.27204 -0.23397,-0.0241 -4.40651,3.28001 -5.76143,4.56231 -2.56211,2.42477 -4.01495,4.63775 -4.90178,7.46643 -0.5618,1.79198 -0.8554,3.57033 -1.1524,6.9802 -0.43245,4.96505 -1.49507,7.10186 -4.15123,8.3477 -1.27088,0.59609 -3.26175,0.59123 -4.57152,-0.0112 -2.76309,-1.2708 -4.2857,-4.30215 -3.78348,-7.53251 0.43492,-2.79755 1.54265,-4.37299 3.84593,-5.46978 0.72769,-0.34653 1.90989,-0.79491 2.6271,-0.99641 2.93693,-0.82513 4.29592,-1.86129 6.18922,-4.71898 2.24646,-3.39075 5.82428,-10.35999 6.78283,-13.21228 0.48943,-1.45639 0.51226,-1.63185 0.42294,-3.251 -0.14769,-2.67731 -1.00939,-7.06165 -2.97652,-15.14464 -0.57624,-2.36777 -1.02384,-4.32892 -0.99466,-4.3581 0.0291,-0.0291 1.40058,2.4949 3.04755,5.60907 4.08742,7.72867 4.26392,8.0525 4.34496,7.97145 0.0391,-0.0391 0.29041,-0.86811 0.55843,-1.84223 1.14135,-4.14805 2.4437,-7.73794 3.77667,-10.41028 0.81529,-1.63447 2.20498,-3.9194 2.31616,-3.80822 0.0326,0.0326 -0.9982,5.03641 -2.29072,11.11952 -1.29252,6.0831 -2.35004,11.39174 -2.35004,11.79697 0,1.52698 1.66273,5.66591 4.09136,10.18438 4.02294,7.48469 5.2506,8.71687 10.46417,10.50266 1.16128,0.39777 2.43529,0.94604 2.83113,1.21837 1.80141,1.2394 2.97729,4.54362 2.51682,7.07215 -0.24625,1.35219 -1.14832,3.10734 -2.08438,4.05555 -1.33113,1.34841 -3.30073,2.04362 -4.88867,1.72556 z m -29.78951,-1.40797 c 1.15398,-0.39137 2.66595,-1.93633 3.16311,-3.23212 0.50442,-1.31469 0.62172,-3.30348 0.26684,-4.52418 -0.39025,-1.34244 -1.32155,-2.42511 -2.64754,-3.07789 -0.96186,-0.47353 -1.28662,-0.54651 -2.68127,-0.60252 -1.54366,-0.062 -1.60613,-0.0505 -2.2949,0.42428 -1.09618,0.75554 -2.39211,2.22261 -2.87665,3.25656 -0.3695,0.78846 -0.43944,1.15873 -0.43944,2.32664 0,1.24027 0.0572,1.50523 0.53475,2.47517 0.64249,1.30509 1.80766,2.41806 3.01904,2.88377 1.07375,0.41281 2.85292,0.44442 3.95606,0.0703 z m 32.69449,-0.24325 c 1.17087,-0.5457 2.17241,-1.5463 2.72278,-2.72026 0.36725,-0.78331 0.43163,-1.14073 0.43163,-2.39617 0,-1.37818 -0.0406,-1.55765 -0.61513,-2.72013 -0.70215,-1.42065 -1.98763,-2.71332 -3.41772,-3.43689 -1.0301,-0.52118 -1.39669,-0.53637 -2.75534,-0.11415 -2.03695,0.63301 -3.57075,2.07278 -4.1425,3.88854 -0.44223,1.40441 -0.27653,3.45209 0.38869,4.80334 0.61594,1.25115 1.9537,2.56521 3.00041,2.94725 1.11047,0.40532 3.23974,0.28322 4.38718,-0.25153 z"
       id="path1578" />
    <path
       style="fill:#000000;stroke-width:0.163003"
       d="m 316.08151,140.77746 v -22.42828 h 5.0971 c 5.66873,0 6.47776,0.1125 8.47895,1.17912 3.72529,1.98557 4.86754,5.52963 4.11176,12.75762 -0.15,1.43442 -0.30969,3.78166 -0.35513,5.21609 -0.0797,2.52244 -0.0609,2.72632 0.5761,6.21129 0.88559,4.84587 1.03416,6.10657 1.03531,8.78497 0.002,4.80647 -1.41775,7.85542 -4.32738,9.29307 -2.12794,1.05141 -3.55863,1.25439 -9.44139,1.33951 l -5.17532,0.0749 z m 10.4348,17.24574 c 2.15094,-1.17069 3.31457,-3.53736 3.51785,-7.15496 0.1575,-2.80322 -0.56091,-5.46994 -1.87757,-6.96956 -1.03703,-1.1811 -2.90291,-1.7474 -5.7656,-1.74986 l -1.43316,-0.001 0.0475,6.64236 c 0.0469,6.53982 0.0534,6.65495 0.42313,7.45738 1.02928,2.23408 2.98903,2.91813 5.08772,1.77587 z m -0.0562,-20.8635 c 1.65638,-1.02406 2.4681,-2.81802 2.61091,-5.7703 0.17219,-3.5614 -0.97713,-6.37012 -3.03163,-7.40803 -0.85063,-0.42974 -1.97669,-0.67463 -3.80447,-0.82736 l -1.26329,-0.10556 v 5.46838 c 0,5.18455 0.0187,5.51667 0.34803,6.39854 0.38332,1.02454 1.41826,2.26594 2.17851,2.61313 0.77003,0.35164 2.05556,0.19157 2.96194,-0.3688 z"
       id="path1617" />
    <path
       style="fill:#000000;stroke-width:0.163003"
       d="m 384.64102,225.95826 c -0.0463,-0.0747 0.628,-0.2279 1.49816,-0.34052 2.55988,-0.33129 2.47856,-0.30103 2.47856,-0.92222 0,-0.59566 0.0762,-0.56233 -1.95603,-0.8559 l -0.8965,-0.1295 1.43503,-0.21165 1.43504,-0.21166 -0.0494,-0.59318 -0.0497,-0.59318 -1.2225,-0.16447 c -1.40856,-0.1895 -1.35247,-0.32434 0.20375,-0.48994 l 1.10025,-0.11706 v -0.61702 -0.61701 l -1.01875,-0.11804 c -1.64172,-0.19021 -1.81219,-0.34111 -0.53944,-0.47741 1.48669,-0.15922 1.55819,-0.19682 1.55819,-0.81913 0,-0.59594 -0.0281,-0.60781 -1.95603,-0.83798 l -1.0595,-0.12647 1.304,-0.19975 c 0.71722,-0.10988 1.39572,-0.20528 1.50778,-0.212 0.12063,-0.007 0.20375,-0.238 0.20375,-0.56509 0,-0.62686 -0.0612,-0.65584 -1.79303,-0.85 -1.19703,-0.13419 -0.97338,-0.26412 0.81125,-0.47125 l 0.99944,-0.116 -0.0497,-0.59424 -0.0497,-0.59423 -1.18175,-0.14484 c -0.65,-0.0797 -1.18178,-0.19788 -1.18178,-0.26266 0,-0.0648 0.53178,-0.183 1.18178,-0.26265 l 1.18175,-0.14485 0.0497,-0.59423 0.0497,-0.59423 -0.99944,-0.116 c -1.78463,-0.20713 -2.00828,-0.33706 -0.81125,-0.47126 1.73191,-0.19415 1.79303,-0.22312 1.79303,-0.85 0,-0.32707 -0.0831,-0.55784 -0.20375,-0.56508 -0.11218,-0.007 -0.79056,-0.10144 -1.50778,-0.21047 l -1.304,-0.19822 1.50775,-0.21137 1.50778,-0.21138 v -0.53877 c 0,-0.62762 -0.0716,-0.66598 -1.53684,-0.82289 -1.31154,-0.14044 -1.14713,-0.32929 0.42403,-0.48708 l 1.11281,-0.11175 v -0.61647 -0.61648 l -1.10025,-0.11707 c -1.55622,-0.16559 -1.61231,-0.30044 -0.20375,-0.48993 l 1.2225,-0.16447 0.0506,-0.61126 0.0506,-0.61126 h -3.26991 -3.26988 v -1.44168 -1.44168 l 3.26832,-0.45936 3.26832,-0.45937 -0.0491,-0.58475 -0.0491,-0.58475 -1.18175,-0.14484 c -0.65,-0.0797 -1.18178,-0.19788 -1.18178,-0.26266 0,-0.0648 0.53178,-0.183 1.18178,-0.26265 l 1.18175,-0.14485 0.0497,-0.59423 0.0497,-0.59423 -0.99944,-0.116 c -1.78463,-0.20713 -2.00829,-0.33706 -0.81125,-0.47126 1.73191,-0.19415 1.79303,-0.22312 1.79303,-0.84999 0,-0.32708 -0.0831,-0.55785 -0.20375,-0.56509 -0.11219,-0.007 -0.79056,-0.10144 -1.50778,-0.21047 l -1.304,-0.19822 1.50775,-0.21137 1.50778,-0.21138 v -0.53874 c 0,-0.62762 -0.0716,-0.66599 -1.53684,-0.8229 -1.31154,-0.14044 -1.14713,-0.32929 0.42403,-0.48707 l 1.11281,-0.11175 v -0.61893 -0.61892 l -1.11281,-0.11175 c -1.57116,-0.15778 -1.73557,-0.34662 -0.42403,-0.48707 1.46518,-0.15691 1.53684,-0.19528 1.53684,-0.82289 v -0.53875 l -1.50778,-0.21137 -1.50775,-0.21138 1.304,-0.19822 c 0.71722,-0.10903 1.39572,-0.20372 1.50778,-0.21047 0.12125,-0.007 0.20375,-0.24006 0.20375,-0.57537 0,-0.61944 0.0847,-0.58146 -1.95603,-0.87627 l -0.8965,-0.1295 1.43503,-0.21166 1.43503,-0.21165 -0.0494,-0.59319 -0.0497,-0.59317 -1.2225,-0.16447 c -1.40857,-0.1895 -1.35247,-0.32434 0.20375,-0.48994 l 1.10025,-0.1171 v -0.61701 -0.61702 l -1.01875,-0.11806 c -1.64172,-0.19022 -1.81219,-0.34112 -0.53944,-0.47742 1.48669,-0.15922 1.55819,-0.19682 1.55819,-0.81913 0,-0.59594 -0.0281,-0.60781 -1.95603,-0.83798 l -1.05951,-0.12647 1.30401,-0.19975 c 0.71722,-0.10988 1.39572,-0.20528 1.50778,-0.212 0.12062,-0.007 0.20375,-0.238 0.20375,-0.56508 0,-0.62686 -0.0612,-0.65585 -1.79303,-0.85001 -1.19704,-0.13418 -0.97338,-0.26412 0.81125,-0.47125 l 0.99944,-0.116 -0.0497,-0.59423 -0.0497,-0.59423 -1.18175,-0.14484 c -0.65,-0.0797 -1.18178,-0.19788 -1.18178,-0.26266 0,-0.0648 0.53178,-0.183 1.18178,-0.26266 l 1.18175,-0.14484 0.0506,-0.61127 0.0506,-0.61126 h -3.26991 -3.26988 v -1.44091 -1.44092 l 1.99678,-0.27509 c 1.09822,-0.15132 2.56916,-0.35545 3.2687,-0.45363 l 1.27194,-0.17854 -0.0494,-0.59124 -0.0494,-0.59124 -1.22251,-0.16447 c -1.40856,-0.1895 -1.35247,-0.32434 0.20375,-0.48994 l 1.10026,-0.11709 v -0.61702 -0.61702 l -1.01876,-0.11803 c -1.64172,-0.19022 -1.81219,-0.34112 -0.53943,-0.47742 1.48669,-0.15922 1.55819,-0.19681 1.55819,-0.81913 0,-0.59593 -0.0281,-0.60781 -1.95604,-0.83798 l -1.0595,-0.12646 1.304,-0.19975 c 0.71722,-0.10988 1.39572,-0.20529 1.50779,-0.21201 0.27656,-0.0166 0.26562,-1.09465 -0.0125,-1.2013 -0.11875,-0.0456 -0.72279,-0.13719 -1.3421,-0.2035 -1.27478,-0.13653 -1.1021,-0.28722 0.54825,-0.47845 l 1.0276,-0.11906 -0.0497,-0.59423 -0.0497,-0.59423 -1.18175,-0.14485 c -0.65,-0.0797 -1.18178,-0.19787 -1.18178,-0.26266 0,-0.0648 0.53178,-0.183 1.18178,-0.26265 l 1.18175,-0.14485 0.0506,-0.61126 0.0506,-0.61126 h -3.26991 -3.26988 v -0.4075 -0.40751 l 2.24128,0.003 c 4.32782,0.005 6.47098,0.9418 7.04527,3.07809 0.51506,1.91589 0.53375,3.10315 0.49931,31.71624 -0.0378,31.33079 0.0188,29.57674 -0.95894,30.62264 -0.58681,0.62877 -1.39641,1.02105 -2.54566,1.23351 -1.13247,0.20934 -3.61722,0.23731 -3.73788,0.0421 z"
       id="path1656" />
    <path
       style="fill:#000000;stroke-width:0.163003"
       d="m 450.39624,218.06615 c 2.5e-4,-0.0225 0.21438,-0.88738 0.47607,-1.92214 1.13131,-4.47514 1.55837,-9.20626 1.43243,-15.86891 -0.11343,-6.00187 -0.62337,-10.48824 -1.65547,-14.56501 l -0.38172,-1.50778 h 3.72388 3.72392 l -0.23782,0.77427 c -2.12822,6.92652 -2.06659,11.28225 0.19063,13.47445 0.827,0.80317 1.86372,1.26163 3.07228,1.35865 1.98838,0.15959 3.44792,-0.69406 4.38326,-2.56366 1.38119,-2.76088 1.18835,-7.18014 -0.52837,-12.10644 l -0.32663,-0.93727 h 3.2745 3.27451 l -0.0978,0.93727 c -0.75188,7.20172 -0.90475,9.3737 -1.02966,14.6295 -0.1125,4.73382 0.0925,9.00984 0.59906,12.50218 0.28188,1.94266 0.8811,4.66413 1.22216,5.55038 0.10281,0.26691 -0.14812,0.28525 -3.90126,0.28525 -2.20606,0 -4.011,-0.0388 -4.011,-0.0862 0,-0.0474 0.23,-0.54154 0.51084,-1.09814 1.78829,-3.54259 2.17979,-5.74001 2.00338,-11.24468 l -0.11375,-3.54531 h -5.00491 -5.00488 l -0.10313,3.46381 c -0.16625,5.59395 0.225,7.79265 2.03013,11.40555 0.25625,0.51294 0.46597,0.97139 0.46597,1.01877 0,0.0474 -1.7971,0.0862 -3.99357,0.0862 -2.19644,0 -3.99335,-0.0184 -3.99313,-0.0408 z"
       id="path1695" />
    <path
       style="fill:#000000;stroke-width:0.163003"
       d="m 475.76915,217.00663 c 1.90626,-5.0023 3.41929,-10.42967 6.5777,-23.59466 0.55922,-2.33094 1.19697,-4.75153 1.41725,-5.37909 0.7436,-2.11865 1.84941,-3.34156 3.02157,-3.34156 2.02497,0 3.23147,1.72081 4.11432,5.8681 2.09797,9.85545 4.28366,17.92778 6.64235,24.53193 l 1.04791,2.93405 -3.58285,0.0439 c -1.97056,0.0241 -3.60116,0.0241 -3.62357,0 -0.0219,-0.0241 0.10344,-0.59406 0.27969,-1.26645 0.81057,-3.09247 -0.50644,-5.9393 -3.25525,-7.03659 -1.33026,-0.53102 -3.82482,-0.5301 -5.01942,0.002 -1.03556,0.46112 -2.26013,1.68612 -2.57231,2.57317 -0.47913,1.3614 -0.48029,3.46919 -0.003,5.37117 l 0.0991,0.39442 h -2.78141 -2.78144 z m 14.39934,-9.78503 c 0,-0.0699 -0.69682,-3.60693 -1.5485,-7.86003 -0.85169,-4.2531 -1.54854,-7.75343 -1.54854,-7.77852 0,-0.025 -0.25156,-0.0456 -0.55894,-0.0456 -0.53465,0 -0.56956,0.0372 -0.80281,0.85577 -0.74913,2.62871 -3.85435,14.46187 -3.85435,14.68791 0,0.24112 0.4111,0.26759 4.15657,0.26759 2.28613,0 4.15657,-0.0572 4.15657,-0.12712 z"
       id="path1734" />
    <path
       style="fill:#000000;stroke-width:0.163003"
       d="m 502.46041,217.74014 c 1.39,-4.86795 1.89626,-9.17085 1.89785,-16.13044 0.001,-5.37615 -0.30906,-10.08323 -1.09144,-16.55162 l -0.10344,-0.85577 h 3.29376 c 3.27881,0 3.29322,0.002 3.18435,0.34461 -0.06,0.18953 -0.39516,1.34469 -0.74447,2.56703 l -0.63513,2.22244 v 11.84238 11.84239 l 1.141,2.48922 c 0.62756,1.36906 1.14103,2.51335 1.14103,2.54287 0,0.0294 -1.84234,0.0537 -4.0941,0.0537 h -4.09406 z"
       id="path1773" />
    <path
       style="fill:#000000;stroke-width:0.163003"
       d="m 534.03999,218.18718 c -1.96272,-0.55166 -2.56585,-1.34537 -4.33429,-5.70388 -1.39197,-3.43062 -2.71422,-5.37318 -4.68647,-6.8851 -0.94332,-0.72312 -3.03673,-1.91834 -3.1542,-1.80086 -0.0403,0.0403 0.36666,3.14322 0.90438,6.89538 0.53772,3.75216 0.97766,6.95533 0.97766,7.11815 0,0.27725 -0.2325,0.29603 -3.66754,0.29603 -2.01719,0 -3.66757,-0.0358 -3.66757,-0.0795 0,-0.0437 0.18219,-0.78112 0.40513,-1.6387 1.11078,-4.27519 1.46941,-7.81417 1.46941,-14.50061 0,-6.78978 -0.38213,-10.72134 -1.52482,-15.68903 l -0.45931,-1.99678 h 4.05479 c 7.26826,0 10.30808,0.6276 12.36677,2.55324 1.55972,1.45894 2.26425,3.47656 2.26741,6.49342 0.003,2.55614 -0.4386,4.88309 -1.86773,9.8482 -0.3159,1.09756 -0.57437,2.34473 -0.57437,2.77147 0,1.88614 1.03228,4.62331 3.52003,9.33353 0.85391,1.61675 1.51716,2.97493 1.47391,3.01819 -0.21656,0.21643 -2.69875,0.19293 -3.50319,-0.0332 z m -7.5502,-16.31976 c 3.16926,-0.82548 4.59591,-3.19573 4.59001,-7.62576 -0.006,-3.71322 -1.15019,-6.18604 -3.33916,-7.2099 -2.11669,-0.99008 -4.29048,-0.11644 -5.32998,2.14214 -0.36744,0.79834 -0.37609,0.94135 -0.42328,6.98982 l -0.0481,6.17481 1.82507,-0.11829 c 1.00378,-0.0651 2.23028,-0.22381 2.7255,-0.35281 z"
       id="path1812" />
    <path
       style="fill:#000000;stroke-width:0.163003"
       d="m 550.3798,218.91777 c -1.49685,-0.20159 -2.31098,-0.45446 -3.54954,-1.10247 -2.46004,-1.28708 -3.78216,-3.40252 -4.4021,-7.04353 -0.70981,-4.16861 -0.77919,-13.3458 -0.12813,-16.95229 0.41791,-2.31517 0.87725,-3.82298 1.60538,-5.26977 1.08019,-2.14635 2.57819,-3.25568 5.1072,-3.78208 1.80609,-0.37593 6.53066,-0.6196 9.40335,-0.48496 l 2.49585,0.11697 v 4.38391 4.38392 l -1.99678,-6.2e-4 -1.99679,-6.1e-4 -0.31275,-0.76038 c -0.43937,-1.06814 -1.76256,-2.9994 -2.53019,-3.6929 -1.30816,-1.18185 -2.72678,-1.55048 -3.96766,-1.03101 -1.07785,0.45123 -2.32325,2.2657 -2.70226,3.93699 -0.37196,1.64028 -0.5115,4.5376 -0.51034,10.59518 0.002,8.17374 0.205,9.91504 1.3546,11.59459 0.6075,0.88757 1.89166,1.75558 2.82019,1.90626 2.47219,0.40118 4.81891,-1.92458 5.76894,-5.71747 l 0.17344,-0.69276 h 1.97435 1.97434 l -0.10031,1.52532 c -0.18906,2.87932 -0.64925,4.07805 -2.14153,5.57908 -1.90466,1.91587 -5.25573,2.92393 -8.33936,2.50863 z"
       id="path1851" />
    <path
       style="fill:#000000;stroke-width:0.163003"
       d="m 575.17446,218.69265 c -2.66538,-0.61333 -4.90345,-2.28555 -6.03532,-4.50946 -0.95904,-1.88424 -0.97272,-2.0482 -0.98591,-11.80606 -0.0125,-9.25 -0.0694,-10.29691 -0.74007,-13.61074 -0.26593,-1.31476 -0.73143,-3.19652 -1.05818,-4.27882 -0.0803,-0.26647 0.18812,-0.28525 4.08141,-0.28525 2.29216,0 4.16757,0.0272 4.16757,0.0605 0,0.0333 -0.33932,0.82179 -0.754,1.75228 -1.63476,3.66803 -1.69744,3.95457 -1.89585,8.66708 -0.23719,5.63212 0.0156,12.7755 0.52066,14.70409 0.47587,1.81793 1.31972,3.51318 2.23672,4.49355 1.30028,1.39009 2.52872,1.79772 4.15903,1.38005 2.34841,-0.60164 3.60635,-2.34505 4.0357,-5.59321 0.0916,-0.69213 0.18406,-4.70592 0.20531,-8.91954 0.0334,-6.56931 -10e-4,-7.93108 -0.24344,-9.55534 -0.24937,-1.6721 -1.20487,-5.92713 -1.50553,-6.70419 -0.10281,-0.26572 0.10844,-0.28525 3.08563,-0.28525 1.75778,0 3.1955,0.055 3.19491,0.12225 -6.6e-4,0.0673 -0.25219,1.11687 -0.55894,2.33251 -1.07956,4.27712 -1.10769,4.63045 -1.23241,15.47555 -0.12218,10.61973 -0.10656,10.43279 -1.03272,12.45569 -0.47918,1.04668 -1.83441,2.55473 -2.80919,3.12599 -1.78453,1.0458 -4.71772,1.46563 -6.83538,0.97835 z"
       id="path1890" />
    <path
       style="fill:#000000;stroke-width:0.163003"
       d="m 598.4899,215.94711 c 0.57625,-1.18788 1.125,-2.56322 1.21937,-3.0563 0.54066,-2.82418 0.58904,-20.07912 0.0625,-22.24989 -0.4175,-1.72078 -1.65459,-3.12969 -3.86244,-4.39887 -0.42987,-0.24713 -0.80344,-0.42207 -0.83006,-0.38876 -0.0281,0.0333 -0.24938,1.30752 -0.49519,2.8316 -0.62866,3.89949 -0.45078,3.50456 -1.57835,3.50456 h -0.96034 v -3.99357 -3.99357 h 9.44417 9.44417 l 0.0953,0.69277 c 0.18781,1.36519 0.72791,6.38248 0.69106,6.41933 -0.0219,0.0206 -1.74847,-1.24669 -3.83956,-2.81638 -2.09107,-1.56968 -3.83654,-2.8194 -3.87879,-2.77715 -0.18906,0.18907 -0.255,19.52331 -0.0744,21.79084 0.25219,3.1652 0.72847,6.3521 1.29719,8.6799 l 0.46794,1.91528 h -4.12504 -4.12506 z"
       id="path1929" />
    <path
       style="fill:#000000;stroke-width:0.163003"
       d="m 623.26612,218.90968 c -4.70191,-0.71467 -7.08357,-3.488 -7.0936,-8.26016 l -0.003,-1.34477 h 2.36044 c 2.68835,0 2.41895,-0.17263 2.60188,1.66741 0.19282,1.94126 1.28694,3.69873 2.61732,4.20474 1.364,0.51881 3.0235,-0.0259 3.89051,-1.27698 1.9225,-2.77417 1.41512,-6.98497 -1.11941,-9.29008 -0.78769,-0.7164 -1.465,-1.14338 -5.09154,-3.20972 -1.87629,-1.06909 -3.56266,-2.72178 -4.24226,-4.15758 -1.68984,-3.57018 -1.22025,-8.39441 1.06447,-10.93556 1.49457,-1.66233 2.09776,-1.78762 9.12505,-1.8955 l 5.58282,-0.0857 v 4.42085 4.42084 h -2.00954 -2.00953 l -0.19313,-0.83715 c -0.30312,-1.31255 -1.14272,-2.90341 -1.96856,-3.72923 -1.95682,-1.95682 -4.52257,-1.10491 -5.40307,1.79399 -0.49047,1.61477 -0.40225,3.59017 0.22094,4.94692 0.57272,1.24686 1.927,2.54915 3.84106,3.69357 5.02139,3.0023 5.58933,3.46703 6.45751,5.28414 0.75119,1.57216 1.06441,3.24534 1.06441,5.68561 0,4.10077 -1.16772,6.5107 -3.86653,7.97957 -1.51185,0.82285 -3.95039,1.20992 -5.82629,0.92479 z"
       id="path1968" />
    <path
       style="fill:#000000;stroke-width:0.163003"
       d="m 447.13577,171.7326 v -1.38552 h 94.37861 94.37864 v 1.38552 1.38552 h -94.37864 -94.37861 z"
       id="path2007" />
    <path
       style="fill:#000000;stroke-width:0.163003"
       d="m 447.13577,228.70208 v -1.46703 h 94.37861 94.37864 v 1.46703 1.46702 h -94.37864 -94.37861 z"
       id="path2046" />
    <path
       style="fill:#000000;stroke-width:0.326007"
       d="m 1.2415809,171.7326 v -1.30402 H 91.056129 180.87067 v 1.30402 1.30402 H 91.056129 1.2415809 Z"
       id="path2196" />
    <path
       style="fill:#000000;stroke-width:0.326007"
       d="m 1.2415809,228.78358 v -1.30402 H 91.056129 180.87067 v 1.30402 1.30402 H 91.056129 1.2415809 Z"
       id="path2235" />
  </g>
</svg>
