<?xml version="1.0" encoding="UTF-8" standalone="no"?>
<svg
   width="3.56944in"
   height="3.56944in"
   viewBox="0 0 257 257"
   version="1.1"
   id="svg3"
   sodipodi:docname="twitter blanc.svg"
   inkscape:version="1.1.2 (0a00cf5339, 2022-02-04, custom)"
   xmlns:inkscape="http://www.inkscape.org/namespaces/inkscape"
   xmlns:sodipodi="http://sodipodi.sourceforge.net/DTD/sodipodi-0.dtd"
   xmlns="http://www.w3.org/2000/svg"
   xmlns:svg="http://www.w3.org/2000/svg">
  <defs
     id="defs7" />
  <sodipodi:namedview
     id="namedview5"
     pagecolor="#ffffff"
     bordercolor="#666666"
     borderopacity="1.0"
     inkscape:pageshadow="2"
     inkscape:pageopacity="0.0"
     inkscape:pagecheckerboard="0"
     inkscape:document-units="in"
     showgrid="false"
     inkscape:zoom="1.8998079"
     inkscape:cx="171.33311"
     inkscape:cy="171.5963"
     inkscape:window-width="1600"
     inkscape:window-height="837"
     inkscape:window-x="-8"
     inkscape:window-y="-8"
     inkscape:window-maximized="1"
     inkscape:current-layer="svg3" />
  <path
     id="Sélection #1"
     fill="none"
     stroke="black"
     stroke-width="1"
     d="M 113.00,0.21            C 113.00,0.21 135.00,0.21 135.00,0.21              150.12,0.02 169.46,5.10 183.00,11.76              200.63,20.43 213.79,29.93 226.70,45.00              256.56,79.84 264.69,131.31 248.58,174.00              242.86,189.13 235.59,200.64 225.25,213.00              213.23,227.36 198.81,237.28 182.00,245.22              164.71,253.38 144.05,257.22 125.00,257.00              111.86,256.84 93.27,252.94 81.00,248.19              65.34,242.12 50.17,232.51 38.01,220.91              17.15,200.99 0.05,166.21 0.00,137.00              0.00,137.00 0.00,118.00 0.00,118.00              0.38,85.82 20.21,50.97 44.00,30.29              64.43,12.52 86.68,4.40 113.00,0.21 Z            M 196.00,73.00            C 192.48,74.52 182.91,79.25 179.42,78.83              176.49,78.47 171.66,73.68 165.00,71.79              150.47,67.65 133.86,76.57 129.44,91.00              127.71,96.66 128.00,100.24 128.00,106.00              114.42,104.17 99.56,99.33 88.00,91.91              80.94,87.39 74.43,78.89 68.00,77.00              62.73,90.93 64.92,104.41 77.00,114.00              77.00,114.00 65.00,112.00 65.00,112.00              66.37,128.32 72.92,132.55 86.00,140.00              86.00,140.00 76.00,140.00 76.00,140.00              78.30,152.09 89.37,158.95 101.00,160.00              95.08,166.98 82.96,170.81 74.00,171.83              69.51,172.34 64.04,171.43 60.00,173.00              68.46,177.47 73.53,180.10 83.00,182.52              116.74,191.15 154.18,180.09 173.31,150.00              179.83,139.73 182.86,127.92 184.57,116.00              185.17,111.81 184.60,105.35 185.89,102.00              188.10,96.29 193.58,95.52 199.00,85.00              199.00,85.00 186.00,87.00 186.00,87.00              191.57,83.54 194.22,79.22 196.00,73.00 Z" />
  <path
     style="fill:#ffffff;stroke-width:0.526369"
     d="M 160.54255,341.55999 C 143.66206,340.05431 121.53182,335.1429 108.23538,329.95134 85.259337,320.98042 60.573578,304.42584 45.616983,287.95866 23.668735,263.79369 8.0224828,232.18428 2.4793972,200.80978 1.3951357,194.67273 1.3169109,192.63693 1.3164339,170.54356 1.3158674,144.30298 1.5082895,142.10374 5.0022774,128.41726 11.896266,101.41248 28.347866,72.478934 48.952318,51.122038 73.586304,25.588454 102.19971,10.680303 141.48829,2.908965 l 8.05375,-1.5930425 h 18.94341 c 10.41888,0 21.24352,0.2492682 24.05476,0.5539293 36.64077,3.9708463 75.07638,23.1661672 101.57083,50.7259892 24.74621,25.741301 39.75071,56.703539 45.42445,93.734749 1.59641,10.41934 1.99614,32.04325 0.80101,43.33101 -3.49347,32.99527 -15.81477,62.5297 -37.26038,89.31398 -15.60931,19.4951 -31.99648,32.58029 -55.68268,44.46278 -18.43142,9.24635 -36.81656,14.6753 -57.90059,17.09747 -7.07267,0.81252 -24.43635,1.42679 -28.9503,1.02416 z m -10.2122,-93.92792 c 45.27399,-3.67635 80.97927,-31.50209 92.34032,-71.96239 2.70102,-9.61918 4.24068,-18.74407 4.76689,-28.25116 0.62229,-11.24287 1.1935,-12.6891 7.45258,-18.86886 4.84589,-4.78448 7.84062,-8.5725 10.3908,-13.14325 1.49645,-2.68215 1.57809,-3.02638 0.71725,-3.02451 -0.87323,0.002 -8.60223,1.13664 -12.49874,1.83501 -1.48843,0.26677 -1.46144,0.20489 1.08696,-2.49248 1.43731,-1.52132 3.25177,-3.85701 4.03214,-5.19042 1.50853,-2.57762 4.20498,-9.95536 3.79015,-10.370191 -0.13595,-0.135946 -2.99682,0.977988 -6.3575,2.475408 -7.78833,3.470253 -13.30098,5.318653 -15.8623,5.318653 -1.54508,0 -3.47777,-0.85284 -8.24142,-3.6367 -3.52556,-2.060328 -8.20037,-4.2849 -10.78481,-5.132102 -4.05754,-1.330087 -5.28916,-1.492272 -11.14143,-1.467169 -6.76625,0.029 -8.74556,0.386012 -14.87705,2.683208 -8.23444,3.085075 -16.72038,10.602123 -20.78128,18.408533 -2.783,5.34986 -4.18232,11.12155 -4.65481,19.19937 -0.31691,5.41805 -0.48474,6.25482 -1.21367,6.05118 -0.46524,-0.12998 -1.9118,-0.39051 -3.21456,-0.57895 -9.87566,-1.42852 -25.94661,-6.63325 -36.58265,-11.84764 -9.00795,-4.41621 -13.40605,-7.42126 -22.33089,-15.25783 -8.79618,-7.7236 -14.994259,-11.5869 -16.363282,-10.19933 -0.250435,0.25383 -1.101395,2.5933 -1.891017,5.19883 -1.296331,4.27754 -1.439014,5.55471 -1.470122,13.15922 -0.03195,7.81536 0.06812,8.72518 1.389719,12.63286 1.766105,5.22199 4.533574,9.94581 8.20115,13.99861 1.547109,1.70961 2.496969,3.10763 2.110798,3.1067 -0.762682,-0.002 -9.394045,-1.4192 -11.431845,-1.87725 l -1.25508,-0.28211 0.372285,3.77812 c 1.438925,14.6028 7.243527,23.132 21.644124,31.80359 l 3.06569,1.84606 h -5.10114 c -4.99942,0 -5.10113,0.0246 -5.10113,1.23352 0,1.49337 1.58165,6.20557 3.03966,9.05599 4.10786,8.03097 13.29216,14.55499 24.28665,17.25192 l 4.8882,1.19906 -2.81644,2.16642 c -6.44085,4.95433 -17.16867,9.35666 -26.50304,10.87593 -2.60553,0.42408 -8.201722,0.91447 -12.435993,1.08976 -7.581782,0.31386 -12.046507,1.09823 -12.406991,2.1797 -0.287835,0.86349 17.864069,9.38884 24.503864,11.50864 15.55541,4.96617 31.3617,6.81525 47.23796,5.52605 z"
     id="path46"
     transform="scale(0.75000096)" />
  <path
     style="fill:#ffffff;stroke-width:0.526369"
     d="m 160.54255,341.55999 c -16.96821,-1.5135 -38.18654,-6.21376 -52.21832,-11.56735 C 87.966964,322.22567 65.49436,307.74946 50.073865,292.46943 26.442898,269.05371 8.8781435,235.42086 2.5547645,201.48024 1.5144758,195.89651 1.3786209,193.12005 1.182645,173.43832 1.0033112,155.42793 1.1146475,150.43891 1.8169608,145.01439 7.2008576,103.43031 33.812817,59.415871 69.535747,33.011963 89.719351,18.093643 112.28713,8.642215 141.44757,2.8951607 c 8.00384,-1.5774299 8.03476,-1.5792382 26.99715,-1.5792382 10.44128,0 21.28425,0.2492682 24.09549,0.5539293 36.65563,3.972457 75.06564,23.1549872 101.57083,50.7259892 24.76077,25.756445 39.74737,56.681759 45.42445,93.734749 1.59641,10.41934 1.99614,32.04325 0.80101,43.33101 -3.24223,30.62235 -14.68625,59.69386 -33.05267,83.96446 -10.84132,14.32644 -20.27731,23.90432 -33.04557,33.5425 -10.3889,7.8421 -28.108,17.65715 -41.16092,22.80005 -12.39038,4.88186 -28.86522,8.87625 -43.58449,10.56722 -7.07267,0.81252 -24.43635,1.42679 -28.9503,1.02416 z m -2.86687,-94.70919 c 38.96075,-5.78512 69.91366,-29.57715 82.49659,-63.4112 3.9227,-10.54771 6.50981,-23.47743 7.26307,-36.29898 0.65756,-11.19278 1.04146,-12.07206 8.81545,-20.19074 5.61902,-5.86816 11.33555,-14.06783 10.09573,-14.4811 -0.50106,-0.16702 -10.30982,1.18133 -13.14398,1.80682 -1.11747,0.24662 -0.93068,-0.1014 1.35013,-2.5155 1.45586,-1.54094 3.25985,-3.86761 4.00886,-5.17037 1.54435,-2.68613 4.26255,-10.010532 3.86324,-10.409841 -0.14479,-0.144783 -3.01289,0.961918 -6.37357,2.459338 -7.78548,3.468983 -13.30082,5.318653 -15.85915,5.318653 -1.51422,0 -3.38873,-0.80034 -7.53954,-3.21909 -10.2029,-5.945394 -16.3799,-7.704825 -25.05051,-7.135272 -10.13971,0.666051 -19.00097,4.810002 -26.58388,12.431892 -7.38676,7.42475 -10.52345,15.1565 -11.27806,27.79981 -0.21148,3.54317 -0.4469,6.44212 -0.52318,6.44212 -0.0763,0 -2.59214,-0.48425 -5.59083,-1.07612 -22.59293,-4.4593 -42.10032,-13.25513 -54.93085,-24.76817 -9.418898,-8.45174 -16.360484,-13.18173 -18.26983,-12.44904 -0.865098,0.33197 -2.720259,6.29505 -3.620529,11.63755 -0.344872,2.04657 -0.496766,6.15051 -0.350678,9.47464 0.420185,9.56103 3.49448,17.12957 9.778615,24.07377 1.547109,1.70961 2.496969,3.10763 2.110798,3.1067 -0.762682,-0.002 -9.394045,-1.4192 -11.431845,-1.87725 l -1.25508,-0.28211 0.372285,3.77812 c 0.518305,5.26 2.050823,10.9159 4.091156,15.09878 2.376251,4.87157 9.049389,11.49073 15.650818,15.52425 l 4.95351,3.02662 h -5.09397 c -5.908592,0 -5.768552,-0.18946 -4.02724,5.44825 1.44419,4.67574 5.64826,10.81281 9.6404,14.07296 4.24024,3.46278 10.67277,6.56157 16.67885,8.03485 l 4.82853,1.18443 -2.81644,2.16642 c -6.44085,4.95433 -17.16867,9.35666 -26.50304,10.87593 -2.60553,0.42408 -8.201722,0.91447 -12.435993,1.08976 -7.57605,0.31362 -12.066173,1.09677 -12.223399,2.13195 -0.110406,0.72689 14.702039,8.12323 20.46737,10.22003 9.287812,3.37791 20.999952,5.95656 31.288502,6.88876 6.6043,0.59839 20.45333,0.18639 27.14769,-0.80762 z"
     id="path122"
     transform="scale(0.75000096)" />
</svg>
